<?xml version="1.0" encoding="UTF-8"?>
<svg xmlns="http://www.w3.org/2000/svg" xmlns:xlink="http://www.w3.org/1999/xlink" width="46pt" height="46pt" viewBox="0 0 46 46" version="1.1">
<g id="surface1">
<path style=" stroke:none;fill-rule:nonzero;fill:rgb(0%,0%,0%);fill-opacity:1;" d="M 30.390625 21.460938 C 30.140625 21.03125 29.589844 20.886719 29.160156 21.132812 C 28.730469 21.382812 28.585938 21.929688 28.832031 22.359375 L 32.507812 28.726562 C 32.675781 29.019531 32.722656 29.355469 32.632812 29.679688 C 32.546875 30.003906 32.339844 30.277344 32.046875 30.445312 C 31.757812 30.613281 31.417969 30.65625 31.09375 30.570312 C 30.769531 30.484375 30.5 30.277344 30.332031 29.984375 L 19.191406 10.6875 C 19.023438 10.398438 18.976562 10.058594 19.066406 9.734375 C 19.152344 9.410156 19.359375 9.140625 19.652344 8.972656 C 19.941406 8.804688 20.28125 8.757812 20.605469 8.84375 C 20.929688 8.933594 21.199219 9.140625 21.367188 9.429688 L 24.789062 15.359375 C 25.039062 15.789062 25.585938 15.933594 26.015625 15.6875 C 26.445312 15.4375 26.59375 14.890625 26.347656 14.460938 L 22.925781 8.535156 C 22.082031 7.074219 20.210938 6.574219 18.753906 7.414062 C 18.046875 7.824219 17.539062 8.480469 17.328125 9.269531 C 17.210938 9.707031 17.195312 10.152344 17.269531 10.585938 L 5.9375 24.355469 L 2.96875 26.074219 C 1.59375 26.863281 0.613281 28.144531 0.203125 29.671875 C -0.207031 31.203125 0.00390625 32.800781 0.796875 34.171875 C 1.589844 35.542969 2.867188 36.523438 4.398438 36.933594 C 4.910156 37.070312 5.425781 37.140625 5.941406 37.140625 C 6.3125 37.140625 6.683594 37.101562 7.046875 37.03125 L 14.992188 45.050781 C 15.609375 45.671875 16.433594 45.996094 17.269531 45.996094 C 17.816406 45.996094 18.367188 45.855469 18.867188 45.570312 C 19.734375 45.070312 20.304688 44.214844 20.4375 43.222656 C 20.570312 42.230469 20.246094 41.253906 19.539062 40.542969 L 18.257812 39.25 L 19.136719 38.742188 C 19.863281 38.324219 20.34375 37.605469 20.453125 36.777344 C 20.566406 35.949219 20.292969 35.128906 19.703125 34.535156 L 18.671875 33.496094 L 29.460938 31.699219 C 29.796875 31.980469 30.191406 32.1875 30.628906 32.304688 C 30.890625 32.375 31.160156 32.410156 31.425781 32.410156 C 31.953125 32.410156 32.476562 32.273438 32.945312 32 C 33.652344 31.59375 34.160156 30.933594 34.371094 30.144531 C 34.582031 29.359375 34.472656 28.535156 34.066406 27.828125 Z M 2.351562 33.273438 C 1.214844 31.300781 1.890625 28.769531 3.867188 27.628906 L 6.199219 26.28125 L 10.332031 33.4375 L 7.996094 34.785156 C 6.023438 35.925781 3.492188 35.246094 2.351562 33.273438 Z M 18.660156 42.984375 C 18.601562 43.417969 18.347656 43.792969 17.96875 44.011719 C 17.417969 44.332031 16.71875 44.238281 16.269531 43.785156 L 8.894531 36.34375 L 11.410156 34.890625 L 18.265625 41.808594 C 18.574219 42.121094 18.71875 42.546875 18.660156 42.984375 Z M 18.425781 35.800781 C 18.621094 35.996094 18.710938 36.265625 18.671875 36.539062 C 18.636719 36.8125 18.476562 37.046875 18.238281 37.1875 L 16.949219 37.929688 L 13.421875 34.367188 L 16.5 33.855469 Z M 12.027344 32.777344 L 7.617188 25.144531 L 18.101562 12.398438 L 28.304688 30.070312 Z M 12.027344 32.777344 "/>
<path style=" stroke:none;fill-rule:nonzero;fill:rgb(0%,0%,0%);fill-opacity:1;" d="M 28.875 9.175781 C 29.027344 9.273438 29.195312 9.320312 29.359375 9.320312 C 29.65625 9.320312 29.945312 9.171875 30.117188 8.90625 L 34.957031 1.386719 C 35.222656 0.96875 35.105469 0.414062 34.6875 0.144531 C 34.269531 -0.121094 33.714844 -0.00390625 33.445312 0.414062 L 28.605469 7.933594 C 28.335938 8.351562 28.457031 8.90625 28.875 9.175781 Z M 28.875 9.175781 "/>
<path style=" stroke:none;fill-rule:nonzero;fill:rgb(0%,0%,0%);fill-opacity:1;" d="M 45.101562 21.398438 L 35.128906 21.398438 C 34.632812 21.398438 34.230469 21.800781 34.230469 22.296875 C 34.230469 22.792969 34.632812 23.195312 35.128906 23.195312 L 45.101562 23.195312 C 45.597656 23.195312 46 22.792969 46 22.296875 C 46 21.800781 45.597656 21.398438 45.101562 21.398438 Z M 45.101562 21.398438 "/>
<path style=" stroke:none;fill-rule:nonzero;fill:rgb(0%,0%,0%);fill-opacity:1;" d="M 32.332031 12.878906 C 32.078125 13.828125 31.101562 14.402344 30.148438 14.15625 C 29.792969 14.066406 29.417969 14.203125 29.203125 14.5 C 28.984375 14.796875 28.972656 15.195312 29.167969 15.507812 C 30.234375 17.203125 32.058594 18.136719 33.941406 18.136719 C 34.921875 18.136719 35.917969 17.882812 36.832031 17.355469 C 37.992188 16.683594 38.855469 15.621094 39.289062 14.351562 C 40.605469 14.609375 41.957031 14.394531 43.117188 13.726562 C 45.789062 12.183594 46.769531 8.859375 45.347656 6.164062 C 45.175781 5.839844 44.824219 5.652344 44.460938 5.691406 C 44.09375 5.730469 43.789062 5.988281 43.691406 6.339844 C 43.425781 7.285156 42.4375 7.847656 41.492188 7.59375 C 39.542969 7.070312 37.523438 8.023438 36.640625 9.761719 C 34.691406 9.65625 32.855469 10.933594 32.332031 12.878906 Z M 36.992188 11.625 C 37.464844 11.742188 37.941406 11.46875 38.074219 11 C 38.433594 9.738281 39.757812 8.988281 41.027344 9.328125 C 42.167969 9.632812 43.335938 9.347656 44.199219 8.660156 C 44.242188 10.050781 43.523438 11.417969 42.21875 12.171875 C 41.242188 12.734375 40.058594 12.816406 38.964844 12.398438 C 38.710938 12.300781 38.429688 12.320312 38.195312 12.457031 C 37.960938 12.59375 37.800781 12.828125 37.757812 13.09375 C 37.574219 14.25 36.910156 15.234375 35.933594 15.796875 C 34.628906 16.550781 33.085938 16.492188 31.902344 15.757812 C 32.933594 15.355469 33.761719 14.484375 34.070312 13.34375 C 34.410156 12.078125 35.71875 11.304688 36.992188 11.625 Z M 36.992188 11.625 "/>
<path style=" stroke:none;fill-rule:nonzero;fill:rgb(0%,0%,0%);fill-opacity:1;" d="M 27.589844 19.308594 C 27.824219 19.308594 28.058594 19.210938 28.222656 19.042969 C 28.390625 18.878906 28.488281 18.644531 28.488281 18.410156 C 28.488281 18.171875 28.390625 17.941406 28.222656 17.773438 C 28.058594 17.605469 27.824219 17.511719 27.589844 17.511719 C 27.351562 17.511719 27.121094 17.605469 26.953125 17.773438 C 26.789062 17.941406 26.691406 18.171875 26.691406 18.410156 C 26.691406 18.644531 26.789062 18.878906 26.953125 19.042969 C 27.121094 19.210938 27.351562 19.308594 27.589844 19.308594 Z M 27.589844 19.308594 "/>
</g>
</svg>
