<?xml version="1.0" encoding="UTF-8"?>
<svg xmlns="http://www.w3.org/2000/svg" xmlns:xlink="http://www.w3.org/1999/xlink" width="38pt" height="38pt" viewBox="0 0 38 38" version="1.1">
<g id="surface1">
<path style=" stroke:none;fill-rule:nonzero;fill:rgb(0%,0%,0%);fill-opacity:1;" d="M 36.703125 2.59375 L 1.296875 2.59375 C 0.582031 2.59375 0 3.175781 0 3.890625 L 0 8.464844 C 0 9.183594 1.113281 9.183594 1.113281 8.464844 L 1.113281 3.890625 C 1.113281 3.789062 1.195312 3.707031 1.296875 3.707031 L 36.703125 3.707031 C 36.804688 3.707031 36.886719 3.789062 36.886719 3.890625 L 36.886719 31.035156 C 36.886719 31.140625 36.804688 31.222656 36.703125 31.222656 L 29.566406 31.222656 L 29.566406 30.0625 L 35.167969 30.0625 C 35.472656 30.0625 35.722656 29.816406 35.722656 29.507812 L 35.722656 23.679688 C 35.722656 22.957031 34.609375 22.957031 34.609375 23.679688 L 34.609375 28.949219 L 29.566406 28.949219 L 29.566406 26.480469 C 29.585938 26.480469 29.605469 26.484375 29.621094 26.484375 C 30.082031 26.527344 30.660156 26.578125 31.054688 26.175781 C 31.453125 25.777344 31.402344 25.203125 31.363281 24.742188 C 31.320312 24.246094 31.367188 24.109375 31.746094 23.792969 C 32.730469 22.976562 32.75 22.101562 31.746094 21.269531 C 31.367188 20.953125 31.320312 20.816406 31.363281 20.320312 C 31.472656 19.078125 30.890625 18.464844 29.621094 18.578125 C 29.125 18.621094 28.992188 18.574219 28.675781 18.191406 C 27.859375 17.207031 26.984375 17.191406 26.15625 18.191406 C 25.839844 18.574219 25.707031 18.621094 25.210938 18.578125 C 23.964844 18.46875 23.355469 19.054688 23.46875 20.320312 C 23.511719 20.816406 23.464844 20.953125 23.082031 21.269531 C 22.101562 22.085938 22.082031 22.960938 23.082031 23.792969 C 23.464844 24.109375 23.511719 24.246094 23.46875 24.742188 C 23.351562 26.074219 23.988281 26.589844 25.261719 26.480469 L 25.261719 28.949219 L 3.390625 28.949219 L 3.390625 5.976562 L 34.609375 5.976562 L 34.609375 20.710938 C 34.609375 21.429688 35.722656 21.429688 35.722656 20.710938 L 35.722656 5.421875 C 35.722656 5.113281 35.472656 4.863281 35.167969 4.863281 L 2.832031 4.863281 C 2.527344 4.863281 2.277344 5.113281 2.277344 5.421875 L 2.277344 29.507812 C 2.277344 29.816406 2.527344 30.0625 2.832031 30.0625 L 25.261719 30.0625 L 25.261719 31.222656 L 1.300781 31.222656 C 1.195312 31.222656 1.113281 31.140625 1.113281 31.035156 L 1.113281 11.285156 C 1.113281 10.5625 0 10.5625 0 11.285156 L 0 31.035156 C 0 31.753906 0.582031 32.335938 1.300781 32.335938 L 25.261719 32.335938 L 25.261719 34.855469 C 25.34375 35.3125 25.605469 35.480469 26.054688 35.359375 L 27.414062 34.726562 L 28.777344 35.359375 C 29.113281 35.515625 29.566406 35.269531 29.566406 34.855469 L 29.566406 32.335938 L 36.703125 32.335938 C 37.417969 32.335938 38 31.753906 38 31.035156 L 38 3.890625 C 38 3.175781 37.417969 2.59375 36.703125 2.59375 Z M 25.113281 25.375 C 24.554688 25.425781 24.527344 25.394531 24.578125 24.839844 C 24.652344 23.984375 24.453125 23.484375 23.792969 22.9375 C 23.34375 22.5625 23.34375 22.503906 23.792969 22.125 C 24.453125 21.578125 24.652344 21.078125 24.578125 20.222656 C 24.527344 19.667969 24.554688 19.636719 25.113281 19.6875 C 25.96875 19.761719 26.464844 19.5625 27.011719 18.902344 C 27.386719 18.449219 27.445312 18.449219 27.816406 18.902344 C 28.367188 19.5625 28.863281 19.761719 29.71875 19.6875 C 30.277344 19.636719 30.304688 19.667969 30.253906 20.222656 C 30.179688 21.078125 30.375 21.578125 31.035156 22.125 C 31.488281 22.5 31.488281 22.5625 31.035156 22.9375 C 30.375 23.484375 30.179688 23.984375 30.253906 24.839844 C 30.304688 25.394531 30.277344 25.425781 29.71875 25.375 C 29.367188 25.34375 28.972656 25.3125 28.625 25.457031 C 28.285156 25.597656 28.046875 25.882812 27.816406 26.160156 C 27.710938 26.289062 27.511719 26.527344 27.414062 26.570312 C 27.320312 26.527344 27.121094 26.289062 27.011719 26.160156 C 26.78125 25.882812 26.546875 25.597656 26.207031 25.457031 C 25.847656 25.347656 25.480469 25.320312 25.113281 25.375 Z M 27.648438 33.609375 C 27.5 33.539062 27.328125 33.539062 27.179688 33.609375 L 26.375 33.980469 L 26.375 27.128906 C 26.640625 27.417969 26.964844 27.6875 27.414062 27.6875 C 27.863281 27.6875 28.191406 27.417969 28.453125 27.128906 L 28.453125 33.980469 Z M 27.648438 33.609375 "/>
<path style=" stroke:none;fill-rule:nonzero;fill:rgb(0%,0%,0%);fill-opacity:1;" d="M 7.21875 10.636719 L 26.40625 10.636719 C 27.128906 10.636719 27.128906 9.523438 26.40625 9.523438 L 7.21875 9.523438 C 6.5 9.523438 6.5 10.636719 7.21875 10.636719 Z M 7.21875 10.636719 "/>
<path style=" stroke:none;fill-rule:nonzero;fill:rgb(0%,0%,0%);fill-opacity:1;" d="M 31.339844 13.464844 C 31.339844 13.160156 31.089844 12.910156 30.78125 12.910156 L 7.21875 12.910156 C 6.5 12.910156 6.5 14.023438 7.21875 14.023438 L 30.78125 14.023438 C 31.089844 14.023438 31.339844 13.773438 31.339844 13.464844 Z M 31.339844 13.464844 "/>
<path style=" stroke:none;fill-rule:nonzero;fill:rgb(0%,0%,0%);fill-opacity:1;" d="M 21.164062 16.851562 C 21.164062 16.542969 20.914062 16.296875 20.605469 16.296875 L 7.21875 16.296875 C 6.5 16.296875 6.5 17.410156 7.21875 17.410156 L 20.605469 17.410156 C 20.914062 17.410156 21.164062 17.160156 21.164062 16.851562 Z M 21.164062 16.851562 "/>
<path style=" stroke:none;fill-rule:nonzero;fill:rgb(0%,0%,0%);fill-opacity:1;" d="M 13.851562 24.609375 C 13.550781 24.609375 13.246094 24.613281 12.941406 24.613281 C 12.359375 24.613281 12.039062 24.457031 11.917969 23.835938 C 11.808594 23.273438 10.992188 23.34375 10.84375 23.835938 C 10.777344 24.054688 10.445312 24.679688 10.152344 24.628906 C 9.996094 24.601562 9.929688 24.363281 9.875 24.242188 C 9.761719 24 9.679688 23.746094 9.613281 23.492188 C 9.320312 22.410156 9.261719 21.285156 9.078125 20.1875 C 8.96875 19.550781 8 19.730469 7.984375 20.335938 C 7.933594 22.261719 7.617188 24.164062 6.933594 25.96875 C 6.675781 26.640625 7.753906 26.929688 8.003906 26.265625 C 8.269531 25.570312 8.480469 24.855469 8.644531 24.132812 C 8.730469 24.394531 8.835938 24.65625 8.960938 24.90625 C 9.289062 25.546875 9.949219 25.929688 10.660156 25.644531 C 10.914062 25.542969 11.144531 25.363281 11.339844 25.144531 C 11.867188 25.753906 12.652344 25.726562 13.382812 25.726562 C 14.484375 25.722656 15.585938 25.722656 16.6875 25.71875 C 17.402344 25.714844 17.40625 24.601562 16.6875 24.605469 C 15.742188 24.605469 14.796875 24.609375 13.851562 24.609375 Z M 13.851562 24.609375 "/>
<path style=" stroke:none;fill-rule:nonzero;fill:rgb(0%,0%,0%);fill-opacity:1;" d="M 27.414062 24.707031 C 28.613281 24.707031 29.589844 23.730469 29.589844 22.53125 C 29.589844 21.332031 28.613281 20.355469 27.414062 20.355469 C 26.214844 20.355469 25.242188 21.332031 25.242188 22.53125 C 25.242188 23.730469 26.214844 24.707031 27.414062 24.707031 Z M 27.414062 21.46875 C 28 21.46875 28.476562 21.945312 28.476562 22.53125 C 28.476562 23.117188 28 23.59375 27.414062 23.59375 C 26.832031 23.59375 26.355469 23.117188 26.355469 22.53125 C 26.355469 21.945312 26.832031 21.46875 27.414062 21.46875 Z M 27.414062 21.46875 "/>
</g>
</svg>
