<?xml version="1.0" encoding="UTF-8"?>
<svg xmlns="http://www.w3.org/2000/svg" xmlns:xlink="http://www.w3.org/1999/xlink" width="46pt" height="46pt" viewBox="0 0 46 46" version="1.1">
<g id="surface1">
<path style=" stroke:none;fill-rule:nonzero;fill:rgb(0%,0%,0%);fill-opacity:1;" d="M 44.429688 3.140625 L 1.570312 3.140625 C 0.707031 3.140625 0 3.84375 0 4.710938 L 0 10.246094 C 0 11.117188 1.347656 11.117188 1.347656 10.246094 L 1.347656 4.710938 C 1.347656 4.585938 1.449219 4.488281 1.570312 4.488281 L 44.429688 4.488281 C 44.550781 4.488281 44.652344 4.585938 44.652344 4.710938 L 44.652344 37.570312 C 44.652344 37.695312 44.550781 37.796875 44.429688 37.796875 L 35.792969 37.796875 L 35.792969 36.394531 L 42.570312 36.394531 C 42.941406 36.394531 43.242188 36.089844 43.242188 35.71875 L 43.242188 28.664062 C 43.242188 27.792969 41.894531 27.792969 41.894531 28.664062 L 41.894531 35.046875 L 35.792969 35.046875 L 35.792969 32.054688 C 35.816406 32.058594 35.835938 32.058594 35.859375 32.0625 C 36.417969 32.109375 37.113281 32.171875 37.59375 31.6875 C 38.074219 31.207031 38.015625 30.511719 37.964844 29.949219 C 37.914062 29.347656 37.96875 29.183594 38.433594 28.800781 C 39.621094 27.8125 39.640625 26.753906 38.433594 25.75 C 37.96875 25.363281 37.914062 25.199219 37.964844 24.597656 C 38.097656 23.09375 37.394531 22.355469 35.859375 22.488281 C 35.257812 22.542969 35.09375 22.484375 34.710938 22.023438 C 33.726562 20.832031 32.667969 20.808594 31.660156 22.023438 C 31.28125 22.484375 31.117188 22.542969 30.515625 22.488281 C 29.007812 22.355469 28.273438 23.0625 28.410156 24.597656 C 28.460938 25.199219 28.40625 25.363281 27.941406 25.75 C 26.753906 26.738281 26.730469 27.796875 27.941406 28.800781 C 28.40625 29.183594 28.460938 29.351562 28.410156 29.949219 C 28.265625 31.566406 29.039062 32.1875 30.582031 32.054688 L 30.582031 35.046875 L 4.105469 35.046875 L 4.105469 7.234375 L 41.894531 7.234375 L 41.894531 25.070312 C 41.894531 25.941406 43.242188 25.941406 43.242188 25.070312 L 43.242188 6.5625 C 43.242188 6.191406 42.941406 5.886719 42.570312 5.886719 L 3.429688 5.886719 C 3.058594 5.886719 2.757812 6.191406 2.757812 6.5625 L 2.757812 35.71875 C 2.757812 36.089844 3.058594 36.394531 3.429688 36.394531 L 30.582031 36.394531 L 30.582031 37.796875 L 1.574219 37.796875 C 1.449219 37.796875 1.347656 37.695312 1.347656 37.570312 L 1.347656 13.660156 C 1.347656 12.789062 0 12.789062 0 13.660156 L 0 37.570312 C 0 38.4375 0.707031 39.144531 1.574219 39.144531 L 30.582031 39.144531 L 30.582031 42.191406 C 30.675781 42.746094 30.996094 42.949219 31.539062 42.804688 L 33.1875 42.039062 L 34.835938 42.804688 C 35.242188 42.992188 35.792969 42.695312 35.792969 42.191406 L 35.792969 39.144531 L 44.429688 39.144531 C 45.292969 39.144531 46 38.4375 46 37.570312 L 46 4.710938 C 46 3.84375 45.292969 3.140625 44.429688 3.140625 Z M 30.398438 30.71875 C 29.722656 30.777344 29.691406 30.742188 29.75 30.066406 C 29.839844 29.03125 29.601562 28.429688 28.804688 27.765625 C 28.257812 27.308594 28.257812 27.238281 28.804688 26.785156 C 29.601562 26.121094 29.839844 25.515625 29.75 24.480469 C 29.691406 23.808594 29.722656 23.773438 30.398438 23.832031 C 31.433594 23.921875 32.035156 23.683594 32.699219 22.882812 C 33.152344 22.335938 33.222656 22.335938 33.675781 22.882812 C 34.335938 23.683594 34.941406 23.921875 35.976562 23.832031 C 36.648438 23.773438 36.683594 23.808594 36.625 24.480469 C 36.53125 25.515625 36.769531 26.121094 37.570312 26.785156 C 38.117188 27.238281 38.117188 27.308594 37.570312 27.765625 C 36.769531 28.429688 36.53125 29.03125 36.625 30.066406 C 36.683594 30.742188 36.648438 30.777344 35.976562 30.71875 C 35.550781 30.679688 35.070312 30.640625 34.648438 30.816406 C 34.242188 30.984375 33.953125 31.332031 33.675781 31.667969 C 33.542969 31.824219 33.304688 32.113281 33.1875 32.164062 C 33.070312 32.113281 32.832031 31.824219 32.699219 31.667969 C 32.421875 31.332031 32.132812 30.984375 31.726562 30.816406 C 31.289062 30.683594 30.847656 30.648438 30.398438 30.71875 Z M 33.472656 40.683594 C 33.292969 40.601562 33.082031 40.601562 32.902344 40.683594 L 31.929688 41.136719 L 31.929688 32.839844 C 32.25 33.191406 32.644531 33.515625 33.1875 33.515625 C 33.730469 33.515625 34.125 33.191406 34.445312 32.839844 L 34.445312 41.136719 Z M 33.472656 40.683594 "/>
<path style=" stroke:none;fill-rule:nonzero;fill:rgb(0%,0%,0%);fill-opacity:1;" d="M 8.738281 12.875 L 31.96875 12.875 C 32.839844 12.875 32.839844 11.527344 31.96875 11.527344 L 8.738281 11.527344 C 7.867188 11.527344 7.867188 12.875 8.738281 12.875 Z M 8.738281 12.875 "/>
<path style=" stroke:none;fill-rule:nonzero;fill:rgb(0%,0%,0%);fill-opacity:1;" d="M 37.933594 16.300781 C 37.933594 15.929688 37.632812 15.628906 37.261719 15.628906 L 8.738281 15.628906 C 7.867188 15.628906 7.867188 16.976562 8.738281 16.976562 L 37.261719 16.976562 C 37.632812 16.976562 37.933594 16.671875 37.933594 16.300781 Z M 37.933594 16.300781 "/>
<path style=" stroke:none;fill-rule:nonzero;fill:rgb(0%,0%,0%);fill-opacity:1;" d="M 25.617188 20.398438 C 25.617188 20.027344 25.316406 19.726562 24.945312 19.726562 L 8.738281 19.726562 C 7.867188 19.726562 7.867188 21.074219 8.738281 21.074219 L 24.945312 21.074219 C 25.316406 21.074219 25.617188 20.773438 25.617188 20.398438 Z M 25.617188 20.398438 "/>
<path style=" stroke:none;fill-rule:nonzero;fill:rgb(0%,0%,0%);fill-opacity:1;" d="M 16.769531 29.792969 C 16.402344 29.792969 16.035156 29.792969 15.667969 29.792969 C 14.960938 29.792969 14.570312 29.605469 14.425781 28.855469 C 14.296875 28.171875 13.308594 28.257812 13.128906 28.855469 C 13.046875 29.121094 12.644531 29.878906 12.289062 29.816406 C 12.101562 29.78125 12.019531 29.492188 11.953125 29.34375 C 11.816406 29.054688 11.71875 28.746094 11.636719 28.4375 C 11.28125 27.128906 11.210938 25.765625 10.988281 24.4375 C 10.859375 23.664062 9.683594 23.882812 9.664062 24.617188 C 9.605469 26.949219 9.222656 29.25 8.390625 31.4375 C 8.082031 32.25 9.386719 32.601562 9.691406 31.796875 C 10.011719 30.953125 10.265625 30.089844 10.460938 29.210938 C 10.570312 29.53125 10.695312 29.84375 10.847656 30.148438 C 11.242188 30.925781 12.046875 31.386719 12.902344 31.042969 C 13.210938 30.917969 13.488281 30.703125 13.726562 30.441406 C 14.367188 31.175781 15.3125 31.140625 16.199219 31.140625 C 17.53125 31.140625 18.867188 31.136719 20.199219 31.132812 C 21.066406 31.128906 21.070312 29.78125 20.199219 29.785156 C 19.058594 29.789062 17.914062 29.789062 16.769531 29.792969 Z M 16.769531 29.792969 "/>
<path style=" stroke:none;fill-rule:nonzero;fill:rgb(0%,0%,0%);fill-opacity:1;" d="M 33.1875 29.90625 C 34.636719 29.90625 35.820312 28.726562 35.820312 27.273438 C 35.820312 25.824219 34.636719 24.644531 33.1875 24.644531 C 31.734375 24.644531 30.554688 25.824219 30.554688 27.273438 C 30.554688 28.726562 31.734375 29.90625 33.1875 29.90625 Z M 33.1875 25.992188 C 33.894531 25.992188 34.472656 26.566406 34.472656 27.273438 C 34.472656 27.984375 33.894531 28.558594 33.1875 28.558594 C 32.480469 28.558594 31.902344 27.984375 31.902344 27.273438 C 31.902344 26.566406 32.480469 25.992188 33.1875 25.992188 Z M 33.1875 25.992188 "/>
</g>
</svg>
