<?xml version="1.0" encoding="UTF-8"?>
<svg xmlns="http://www.w3.org/2000/svg" xmlns:xlink="http://www.w3.org/1999/xlink" width="46pt" height="46pt" viewBox="0 0 46 46" version="1.1">
<g id="surface1">
<path style=" stroke:none;fill-rule:nonzero;fill:rgb(0%,0%,0%);fill-opacity:1;" d="M 42.765625 0.71875 L 3.234375 0.71875 C 1.84375 0.71875 0.71875 1.84375 0.71875 3.234375 L 0.71875 35.578125 C 0.71875 36.96875 1.84375 38.09375 3.234375 38.09375 L 33.0625 38.09375 L 33.0625 41.6875 C 33.0625 43.671875 34.671875 45.28125 36.65625 45.28125 C 38.640625 45.28125 40.25 43.671875 40.25 41.6875 L 40.25 38.09375 L 42.765625 38.09375 C 44.15625 38.09375 45.28125 36.96875 45.28125 35.578125 L 45.28125 3.234375 C 45.28125 1.84375 44.15625 0.71875 42.765625 0.71875 Z M 38.8125 41.6875 C 38.8125 42.878906 37.847656 43.84375 36.65625 43.84375 C 35.464844 43.84375 34.5 42.878906 34.5 41.6875 L 34.5 40.96875 L 38.8125 40.96875 Z M 38.8125 39.53125 L 34.5 39.53125 L 34.5 38.8125 L 38.8125 38.8125 Z M 38.8125 37.375 L 34.5 37.375 L 34.5 16.53125 L 38.8125 16.53125 Z M 38.8125 15.09375 L 34.5 15.09375 L 34.5 14.542969 L 34.945312 13.65625 L 38.367188 13.65625 L 38.8125 14.542969 Z M 35.664062 12.21875 L 36.65625 10.230469 L 37.648438 12.21875 Z M 43.84375 35.578125 C 43.84375 36.171875 43.359375 36.65625 42.765625 36.65625 L 40.25 36.65625 L 40.25 14.375 C 40.25 14.261719 40.222656 14.152344 40.175781 14.054688 L 37.300781 8.304688 C 37.175781 8.058594 36.929688 7.90625 36.65625 7.90625 C 36.382812 7.90625 36.136719 8.058594 36.011719 8.304688 L 33.136719 14.054688 C 33.089844 14.152344 33.0625 14.261719 33.0625 14.375 L 33.0625 36.65625 L 3.234375 36.65625 C 2.640625 36.65625 2.15625 36.171875 2.15625 35.578125 L 2.15625 6.46875 L 43.84375 6.46875 Z M 43.84375 5.03125 L 2.15625 5.03125 L 2.15625 3.234375 C 2.15625 2.640625 2.640625 2.15625 3.234375 2.15625 L 42.765625 2.15625 C 43.359375 2.15625 43.84375 2.640625 43.84375 3.234375 Z M 43.84375 5.03125 "/>
<path style=" stroke:none;fill-rule:nonzero;fill:rgb(0%,0%,0%);fill-opacity:1;" d="M 4.3125 4.3125 L 5.03125 4.3125 C 5.429688 4.3125 5.75 3.992188 5.75 3.59375 C 5.75 3.195312 5.429688 2.875 5.03125 2.875 L 4.3125 2.875 C 3.914062 2.875 3.59375 3.195312 3.59375 3.59375 C 3.59375 3.992188 3.914062 4.3125 4.3125 4.3125 Z M 4.3125 4.3125 "/>
<path style=" stroke:none;fill-rule:nonzero;fill:rgb(0%,0%,0%);fill-opacity:1;" d="M 7.1875 4.3125 L 7.90625 4.3125 C 8.304688 4.3125 8.625 3.992188 8.625 3.59375 C 8.625 3.195312 8.304688 2.875 7.90625 2.875 L 7.1875 2.875 C 6.789062 2.875 6.46875 3.195312 6.46875 3.59375 C 6.46875 3.992188 6.789062 4.3125 7.1875 4.3125 Z M 7.1875 4.3125 "/>
<path style=" stroke:none;fill-rule:nonzero;fill:rgb(0%,0%,0%);fill-opacity:1;" d="M 10.0625 4.3125 L 10.78125 4.3125 C 11.179688 4.3125 11.5 3.992188 11.5 3.59375 C 11.5 3.195312 11.179688 2.875 10.78125 2.875 L 10.0625 2.875 C 9.664062 2.875 9.34375 3.195312 9.34375 3.59375 C 9.34375 3.992188 9.664062 4.3125 10.0625 4.3125 Z M 10.0625 4.3125 "/>
<path style=" stroke:none;fill-rule:nonzero;fill:rgb(0%,0%,0%);fill-opacity:1;" d="M 36.65625 17.25 C 36.257812 17.25 35.9375 17.570312 35.9375 17.96875 L 35.9375 35.9375 C 35.9375 36.335938 36.257812 36.65625 36.65625 36.65625 C 37.054688 36.65625 37.375 36.335938 37.375 35.9375 L 37.375 17.96875 C 37.375 17.570312 37.054688 17.25 36.65625 17.25 Z M 36.65625 17.25 "/>
<path style=" stroke:none;fill-rule:nonzero;fill:rgb(0%,0%,0%);fill-opacity:1;" d="M 24.4375 23.71875 L 5.75 23.71875 C 5.351562 23.71875 5.03125 24.039062 5.03125 24.4375 C 5.03125 24.835938 5.351562 25.15625 5.75 25.15625 L 24.4375 25.15625 C 24.835938 25.15625 25.15625 24.835938 25.15625 24.4375 C 25.15625 24.039062 24.835938 23.71875 24.4375 23.71875 Z M 24.4375 23.71875 "/>
<path style=" stroke:none;fill-rule:nonzero;fill:rgb(0%,0%,0%);fill-opacity:1;" d="M 24.4375 26.59375 L 5.75 26.59375 C 5.351562 26.59375 5.03125 26.914062 5.03125 27.3125 C 5.03125 27.710938 5.351562 28.03125 5.75 28.03125 L 24.4375 28.03125 C 24.835938 28.03125 25.15625 27.710938 25.15625 27.3125 C 25.15625 26.914062 24.835938 26.59375 24.4375 26.59375 Z M 24.4375 26.59375 "/>
<path style=" stroke:none;fill-rule:nonzero;fill:rgb(0%,0%,0%);fill-opacity:1;" d="M 24.4375 29.46875 L 5.75 29.46875 C 5.351562 29.46875 5.03125 29.789062 5.03125 30.1875 C 5.03125 30.585938 5.351562 30.90625 5.75 30.90625 L 24.4375 30.90625 C 24.835938 30.90625 25.15625 30.585938 25.15625 30.1875 C 25.15625 29.789062 24.835938 29.46875 24.4375 29.46875 Z M 24.4375 29.46875 "/>
<path style=" stroke:none;fill-rule:nonzero;fill:rgb(0%,0%,0%);fill-opacity:1;" d="M 18.6875 32.34375 L 5.75 32.34375 C 5.351562 32.34375 5.03125 32.664062 5.03125 33.0625 C 5.03125 33.460938 5.351562 33.78125 5.75 33.78125 L 18.6875 33.78125 C 19.085938 33.78125 19.40625 33.460938 19.40625 33.0625 C 19.40625 32.664062 19.085938 32.34375 18.6875 32.34375 Z M 18.6875 32.34375 "/>
<path style=" stroke:none;fill-rule:nonzero;fill:rgb(0%,0%,0%);fill-opacity:1;" d="M 24.4375 7.90625 L 5.75 7.90625 C 5.351562 7.90625 5.03125 8.226562 5.03125 8.625 L 5.03125 21.5625 C 5.03125 21.960938 5.351562 22.28125 5.75 22.28125 L 24.4375 22.28125 C 24.835938 22.28125 25.15625 21.960938 25.15625 21.5625 L 25.15625 8.625 C 25.15625 8.226562 24.835938 7.90625 24.4375 7.90625 Z M 23.71875 20.84375 L 6.46875 20.84375 L 6.46875 9.34375 L 23.71875 9.34375 Z M 23.71875 20.84375 "/>
</g>
</svg>
