<?xml version="1.0" encoding="UTF-8"?>
<svg xmlns="http://www.w3.org/2000/svg" xmlns:xlink="http://www.w3.org/1999/xlink" width="46pt" height="46pt" viewBox="0 0 46 46" version="1.1">
<g id="surface1">
<path style=" stroke:none;fill-rule:nonzero;fill:rgb(0%,0%,0%);fill-opacity:1;" d="M 17.65625 2.332031 L 13.824219 2.332031 C 12.851562 2.335938 11.984375 2.949219 11.65625 3.867188 L 7.695312 3.867188 L 7.695312 2.332031 C 7.695312 1.0625 6.667969 0.0351562 5.398438 0.0351562 L 2.332031 0.0351562 C 1.0625 0.0351562 0.0351562 1.0625 0.0351562 2.332031 L 0.0351562 36.808594 L 1.566406 36.808594 L 1.566406 2.332031 C 1.566406 1.910156 1.910156 1.566406 2.332031 1.566406 L 5.398438 1.566406 C 5.820312 1.566406 6.164062 1.910156 6.164062 2.332031 L 6.164062 3.941406 C 4.382812 4.308594 3.101562 5.875 3.097656 7.695312 L 3.097656 38.339844 C 3.101562 40.453125 4.816406 42.167969 6.929688 42.167969 L 11.65625 42.167969 C 11.984375 43.085938 12.851562 43.699219 13.824219 43.703125 L 17.65625 43.703125 C 18.078125 43.703125 18.421875 43.359375 18.421875 42.9375 L 18.421875 32.210938 C 18.421875 31.789062 18.078125 31.445312 17.65625 31.445312 L 13.824219 31.445312 C 12.851562 31.445312 11.984375 32.058594 11.65625 32.976562 L 10.761719 32.976562 L 10.761719 13.058594 L 11.65625 13.058594 C 11.984375 13.976562 12.851562 14.589844 13.824219 14.589844 L 17.65625 14.589844 C 18.078125 14.589844 18.421875 14.246094 18.421875 13.824219 L 18.421875 3.097656 C 18.421875 2.675781 18.078125 2.332031 17.65625 2.332031 Z M 16.890625 42.167969 L 16.121094 42.167969 L 16.121094 32.976562 L 16.890625 32.976562 Z M 13.058594 12.292969 C 13.058594 11.871094 12.714844 11.527344 12.292969 11.527344 L 9.996094 11.527344 C 9.570312 11.527344 9.226562 11.871094 9.226562 12.292969 L 9.226562 33.742188 C 9.226562 34.164062 9.570312 34.507812 9.996094 34.507812 L 12.292969 34.507812 C 12.714844 34.507812 13.058594 34.164062 13.058594 33.742188 C 13.058594 33.320312 13.402344 32.976562 13.824219 32.976562 L 14.589844 32.976562 L 14.589844 42.167969 L 13.824219 42.167969 C 13.402344 42.167969 13.058594 41.828125 13.058594 41.402344 C 13.058594 40.980469 12.714844 40.636719 12.292969 40.636719 L 6.929688 40.636719 C 5.660156 40.636719 4.632812 39.609375 4.632812 38.339844 L 4.632812 7.695312 C 4.632812 6.425781 5.660156 5.398438 6.929688 5.398438 L 12.292969 5.398438 C 12.714844 5.398438 13.058594 5.054688 13.058594 4.632812 C 13.058594 4.207031 13.402344 3.867188 13.824219 3.867188 L 14.589844 3.867188 L 14.589844 13.058594 L 13.824219 13.058594 C 13.402344 13.058594 13.058594 12.714844 13.058594 12.292969 Z M 16.890625 13.058594 L 16.121094 13.058594 L 16.121094 3.867188 L 16.890625 3.867188 Z M 16.890625 13.058594 "/>
<path style=" stroke:none;fill-rule:nonzero;fill:rgb(0%,0%,0%);fill-opacity:1;" d="M 0.0351562 38.339844 L 1.566406 38.339844 L 1.566406 39.871094 L 0.0351562 39.871094 Z M 0.0351562 38.339844 "/>
<path style=" stroke:none;fill-rule:nonzero;fill:rgb(0%,0%,0%);fill-opacity:1;" d="M 0.0351562 41.402344 L 1.566406 41.402344 L 1.566406 42.9375 L 0.0351562 42.9375 Z M 0.0351562 41.402344 "/>
<path style=" stroke:none;fill-rule:nonzero;fill:rgb(0%,0%,0%);fill-opacity:1;" d="M 0.0351562 44.46875 L 1.566406 44.46875 L 1.566406 46 L 0.0351562 46 Z M 0.0351562 44.46875 "/>
<path style=" stroke:none;fill-rule:nonzero;fill:rgb(0%,0%,0%);fill-opacity:1;" d="M 6.164062 22.25 L 7.695312 22.25 L 7.695312 23.785156 L 6.164062 23.785156 Z M 6.164062 22.25 "/>
<path style=" stroke:none;fill-rule:nonzero;fill:rgb(0%,0%,0%);fill-opacity:1;" d="M 6.164062 17.65625 L 7.695312 17.65625 L 7.695312 20.71875 L 6.164062 20.71875 Z M 6.164062 17.65625 "/>
<path style=" stroke:none;fill-rule:nonzero;fill:rgb(0%,0%,0%);fill-opacity:1;" d="M 6.164062 25.316406 L 7.695312 25.316406 L 7.695312 28.378906 L 6.164062 28.378906 Z M 6.164062 25.316406 "/>
<path style=" stroke:none;fill-rule:nonzero;fill:rgb(0%,0%,0%);fill-opacity:1;" d="M 19.953125 36.808594 L 21.484375 36.808594 L 21.484375 38.339844 L 19.953125 38.339844 Z M 19.953125 36.808594 "/>
<path style=" stroke:none;fill-rule:nonzero;fill:rgb(0%,0%,0%);fill-opacity:1;" d="M 19.953125 33.742188 L 21.484375 33.742188 L 21.484375 35.273438 L 19.953125 35.273438 Z M 19.953125 33.742188 "/>
<path style=" stroke:none;fill-rule:nonzero;fill:rgb(0%,0%,0%);fill-opacity:1;" d="M 19.953125 39.871094 L 21.484375 39.871094 L 21.484375 41.402344 L 19.953125 41.402344 Z M 19.953125 39.871094 "/>
<path style=" stroke:none;fill-rule:nonzero;fill:rgb(0%,0%,0%);fill-opacity:1;" d="M 19.953125 7.695312 L 21.484375 7.695312 L 21.484375 9.226562 L 19.953125 9.226562 Z M 19.953125 7.695312 "/>
<path style=" stroke:none;fill-rule:nonzero;fill:rgb(0%,0%,0%);fill-opacity:1;" d="M 19.953125 4.632812 L 21.484375 4.632812 L 21.484375 6.164062 L 19.953125 6.164062 Z M 19.953125 4.632812 "/>
<path style=" stroke:none;fill-rule:nonzero;fill:rgb(0%,0%,0%);fill-opacity:1;" d="M 19.953125 10.761719 L 21.484375 10.761719 L 21.484375 12.292969 L 19.953125 12.292969 Z M 19.953125 10.761719 "/>
<path style=" stroke:none;fill-rule:nonzero;fill:rgb(0%,0%,0%);fill-opacity:1;" d="M 39.105469 16.121094 C 35.597656 16.128906 32.648438 18.765625 32.253906 22.25 L 19.953125 22.25 L 19.953125 23.785156 L 32.253906 23.785156 C 32.667969 27.46875 35.921875 30.167969 39.621094 29.894531 C 43.316406 29.617188 46.136719 26.464844 45.996094 22.761719 C 45.859375 19.054688 42.8125 16.121094 39.105469 16.121094 Z M 39.105469 28.378906 C 36.144531 28.378906 33.742188 25.980469 33.742188 23.015625 C 33.742188 20.054688 36.144531 17.65625 39.105469 17.65625 C 42.066406 17.65625 44.46875 20.054688 44.46875 23.015625 C 44.464844 25.976562 42.066406 28.375 39.105469 28.378906 Z M 39.105469 28.378906 "/>
<path style=" stroke:none;fill-rule:nonzero;fill:rgb(0%,0%,0%);fill-opacity:1;" d="M 34.507812 32.210938 C 32.945312 32.210938 31.429688 32.742188 30.210938 33.722656 L 21.261719 24.773438 L 20.175781 25.859375 L 29.128906 34.808594 C 27.125 37.320312 27.125 40.886719 29.132812 43.398438 C 31.136719 45.910156 34.613281 46.699219 37.507812 45.304688 C 40.402344 43.90625 41.949219 40.695312 41.230469 37.5625 C 40.511719 34.429688 37.722656 32.207031 34.507812 32.210938 Z M 34.507812 44.46875 C 31.546875 44.46875 29.144531 42.066406 29.144531 39.105469 C 29.144531 36.144531 31.546875 33.742188 34.507812 33.742188 C 37.46875 33.742188 39.871094 36.144531 39.871094 39.105469 C 39.867188 42.066406 37.46875 44.464844 34.507812 44.46875 Z M 34.507812 44.46875 "/>
<path style=" stroke:none;fill-rule:nonzero;fill:rgb(0%,0%,0%);fill-opacity:1;" d="M 42.355469 20.664062 C 41.457031 19.769531 40.003906 19.769531 39.105469 20.664062 C 38.207031 19.78125 36.761719 19.785156 35.867188 20.679688 C 34.976562 21.570312 34.96875 23.015625 35.855469 23.914062 L 38.5625 26.625 C 38.863281 26.921875 39.347656 26.921875 39.648438 26.625 L 42.355469 23.914062 C 43.253906 23.019531 43.253906 21.5625 42.355469 20.664062 Z M 41.273438 22.832031 L 39.105469 25 L 36.9375 22.832031 C 36.640625 22.53125 36.640625 22.046875 36.9375 21.75 C 37.238281 21.449219 37.722656 21.449219 38.023438 21.75 L 38.5625 22.289062 C 38.863281 22.589844 39.347656 22.589844 39.648438 22.289062 L 40.1875 21.75 C 40.378906 21.550781 40.664062 21.46875 40.933594 21.539062 C 41.203125 21.609375 41.410156 21.820312 41.480469 22.085938 C 41.550781 22.355469 41.472656 22.640625 41.273438 22.832031 Z M 41.273438 22.832031 "/>
<path style=" stroke:none;fill-rule:nonzero;fill:rgb(0%,0%,0%);fill-opacity:1;" d="M 33.96875 10.535156 C 34.265625 10.835938 34.75 10.835938 35.050781 10.535156 L 37.757812 7.828125 C 38.65625 6.929688 38.65625 5.476562 37.757812 4.578125 C 36.863281 3.679688 35.40625 3.679688 34.507812 4.578125 C 33.609375 3.691406 32.164062 3.699219 31.273438 4.589844 C 30.378906 5.484375 30.375 6.925781 31.257812 7.828125 Z M 32.34375 5.660156 C 32.640625 5.363281 33.125 5.363281 33.425781 5.660156 L 33.96875 6.203125 C 34.265625 6.5 34.75 6.5 35.050781 6.203125 L 35.59375 5.660156 C 35.785156 5.460938 36.070312 5.382812 36.335938 5.453125 C 36.605469 5.523438 36.8125 5.730469 36.882812 6 C 36.953125 6.265625 36.875 6.550781 36.675781 6.746094 L 34.507812 8.910156 L 32.34375 6.746094 C 32.199219 6.601562 32.117188 6.40625 32.117188 6.203125 C 32.117188 6 32.199219 5.804688 32.34375 5.660156 Z M 32.34375 5.660156 "/>
<path style=" stroke:none;fill-rule:nonzero;fill:rgb(0%,0%,0%);fill-opacity:1;" d="M 34.507812 36.753906 C 33.609375 35.867188 32.164062 35.871094 31.273438 36.765625 C 30.378906 37.65625 30.375 39.101562 31.257812 40.003906 L 33.96875 42.710938 C 34.265625 43.007812 34.75 43.007812 35.050781 42.710938 L 37.757812 40.003906 C 38.347656 39.421875 38.582031 38.574219 38.367188 37.777344 C 38.15625 36.976562 37.535156 36.355469 36.734375 36.140625 C 35.9375 35.929688 35.085938 36.164062 34.507812 36.753906 Z M 36.675781 38.917969 L 34.507812 41.085938 L 32.34375 38.917969 C 32.042969 38.621094 32.042969 38.136719 32.34375 37.835938 C 32.640625 37.535156 33.125 37.535156 33.425781 37.835938 L 33.96875 38.378906 C 34.265625 38.675781 34.75 38.675781 35.050781 38.378906 L 35.59375 37.835938 C 35.785156 37.636719 36.070312 37.558594 36.335938 37.628906 C 36.605469 37.699219 36.8125 37.90625 36.882812 38.175781 C 36.953125 38.441406 36.875 38.726562 36.675781 38.917969 Z M 36.675781 38.917969 "/>
<path style=" stroke:none;fill-rule:nonzero;fill:rgb(0%,0%,0%);fill-opacity:1;" d="M 13.824219 22.25 L 15.355469 22.25 L 15.355469 23.785156 L 13.824219 23.785156 Z M 13.824219 22.25 "/>
<path style=" stroke:none;fill-rule:nonzero;fill:rgb(0%,0%,0%);fill-opacity:1;" d="M 16.890625 22.25 L 18.421875 22.25 L 18.421875 23.785156 L 16.890625 23.785156 Z M 16.890625 22.25 "/>
<path style=" stroke:none;fill-rule:nonzero;fill:rgb(0%,0%,0%);fill-opacity:1;" d="M 20.175781 20.175781 L 21.261719 21.261719 L 30.210938 12.3125 C 33.074219 14.601562 37.230469 14.253906 39.679688 11.523438 C 42.125 8.789062 42.007812 4.617188 39.414062 2.023438 C 36.820312 -0.570312 32.652344 -0.683594 29.917969 1.761719 C 27.183594 4.207031 26.835938 8.363281 29.128906 11.226562 Z M 34.507812 1.566406 C 37.46875 1.566406 39.871094 3.96875 39.871094 6.929688 C 39.871094 9.890625 37.46875 12.292969 34.507812 12.292969 C 31.546875 12.292969 29.144531 9.890625 29.144531 6.929688 C 29.148438 3.96875 31.546875 1.570312 34.507812 1.566406 Z M 34.507812 1.566406 "/>
</g>
</svg>
