<?xml version="1.0" encoding="UTF-8"?>
<svg xmlns="http://www.w3.org/2000/svg" xmlns:xlink="http://www.w3.org/1999/xlink" width="46pt" height="46pt" viewBox="0 0 46 46" version="1.1">
<g id="surface1">
<path style=" stroke:none;fill-rule:nonzero;fill:rgb(0%,0%,0%);fill-opacity:1;" d="M 23.117188 10.5625 C 20.929688 10.5625 19.0625 11.503906 18.246094 13.015625 C 18.066406 13.34375 18.1875 13.753906 18.515625 13.929688 C 18.84375 14.105469 19.25 13.984375 19.429688 13.660156 C 20.003906 12.597656 21.449219 11.910156 23.117188 11.910156 C 24.78125 11.910156 26.226562 12.597656 26.804688 13.660156 C 26.925781 13.882812 27.15625 14.011719 27.394531 14.011719 C 27.503906 14.011719 27.613281 13.984375 27.714844 13.929688 C 28.042969 13.753906 28.164062 13.34375 27.988281 13.015625 C 27.167969 11.503906 25.300781 10.5625 23.117188 10.5625 Z M 23.117188 10.5625 "/>
<path style=" stroke:none;fill-rule:nonzero;fill:rgb(0%,0%,0%);fill-opacity:1;" d="M 29.988281 11.402344 C 30.109375 11.628906 30.339844 11.753906 30.582031 11.753906 C 30.6875 11.753906 30.796875 11.730469 30.902344 11.675781 C 31.226562 11.496094 31.347656 11.089844 31.171875 10.761719 C 29.828125 8.285156 26.742188 6.746094 23.117188 6.746094 C 19.488281 6.746094 16.402344 8.285156 15.058594 10.761719 C 14.882812 11.089844 15.003906 11.496094 15.332031 11.675781 C 15.65625 11.851562 16.066406 11.730469 16.242188 11.402344 C 17.351562 9.359375 19.984375 8.09375 23.117188 8.09375 C 26.246094 8.09375 28.878906 9.359375 29.988281 11.402344 Z M 29.988281 11.402344 "/>
<path style=" stroke:none;fill-rule:nonzero;fill:rgb(0%,0%,0%);fill-opacity:1;" d="M 11.953125 9.90625 C 12.28125 10.085938 12.691406 9.964844 12.867188 9.636719 C 14.53125 6.574219 18.457031 4.667969 23.117188 4.667969 C 27.773438 4.667969 31.703125 6.574219 33.363281 9.636719 C 33.484375 9.863281 33.71875 9.988281 33.957031 9.988281 C 34.066406 9.988281 34.175781 9.960938 34.277344 9.90625 C 34.601562 9.730469 34.726562 9.320312 34.546875 8.996094 C 32.648438 5.496094 28.269531 3.324219 23.117188 3.324219 C 17.960938 3.324219 13.582031 5.496094 11.683594 8.996094 C 11.507812 9.320312 11.628906 9.730469 11.953125 9.90625 Z M 11.953125 9.90625 "/>
<path style=" stroke:none;fill-rule:nonzero;fill:rgb(0%,0%,0%);fill-opacity:1;" d="M 36.046875 23.863281 C 37.011719 23.863281 37.796875 23.078125 37.796875 22.109375 C 37.796875 21.144531 37.011719 20.359375 36.046875 20.359375 C 35.082031 20.359375 34.296875 21.144531 34.296875 22.109375 C 34.296875 23.078125 35.082031 23.863281 36.046875 23.863281 Z M 36.046875 21.703125 C 36.269531 21.703125 36.449219 21.886719 36.449219 22.109375 C 36.449219 22.332031 36.265625 22.515625 36.046875 22.515625 C 35.824219 22.515625 35.640625 22.335938 35.640625 22.109375 C 35.640625 21.886719 35.824219 21.703125 36.046875 21.703125 Z M 36.046875 21.703125 "/>
<path style=" stroke:none;fill-rule:nonzero;fill:rgb(0%,0%,0%);fill-opacity:1;" d="M 36.046875 25.898438 C 35.082031 25.898438 34.296875 26.683594 34.296875 27.648438 C 34.296875 28.617188 35.082031 29.402344 36.046875 29.402344 C 37.011719 29.402344 37.796875 28.617188 37.796875 27.648438 C 37.796875 26.683594 37.011719 25.898438 36.046875 25.898438 Z M 36.046875 28.054688 C 35.824219 28.054688 35.640625 27.875 35.640625 27.648438 C 35.640625 27.425781 35.824219 27.242188 36.046875 27.242188 C 36.265625 27.242188 36.449219 27.429688 36.449219 27.648438 C 36.453125 27.875 36.269531 28.054688 36.046875 28.054688 Z M 36.046875 28.054688 "/>
<path style=" stroke:none;fill-rule:nonzero;fill:rgb(0%,0%,0%);fill-opacity:1;" d="M 35.027344 24.878906 C 35.027344 23.914062 34.242188 23.128906 33.277344 23.128906 C 32.308594 23.128906 31.523438 23.914062 31.523438 24.878906 C 31.523438 25.847656 32.308594 26.632812 33.277344 26.632812 C 34.242188 26.632812 35.027344 25.847656 35.027344 24.878906 Z M 33.277344 25.285156 C 33.050781 25.285156 32.871094 25.105469 32.871094 24.878906 C 32.871094 24.65625 33.050781 24.472656 33.277344 24.472656 C 33.5 24.472656 33.683594 24.65625 33.683594 24.878906 C 33.683594 25.105469 33.5 25.285156 33.277344 25.285156 Z M 33.277344 25.285156 "/>
<path style=" stroke:none;fill-rule:nonzero;fill:rgb(0%,0%,0%);fill-opacity:1;" d="M 38.816406 23.128906 C 37.851562 23.128906 37.066406 23.914062 37.066406 24.878906 C 37.066406 25.847656 37.851562 26.632812 38.816406 26.632812 C 39.785156 26.632812 40.570312 25.847656 40.570312 24.878906 C 40.570312 23.914062 39.785156 23.128906 38.816406 23.128906 Z M 38.816406 25.285156 C 38.59375 25.285156 38.410156 25.105469 38.410156 24.878906 C 38.410156 24.65625 38.59375 24.472656 38.816406 24.472656 C 39.042969 24.472656 39.222656 24.65625 39.222656 24.878906 C 39.222656 25.105469 39.042969 25.285156 38.816406 25.285156 Z M 38.816406 25.285156 "/>
<path style=" stroke:none;fill-rule:nonzero;fill:rgb(0%,0%,0%);fill-opacity:1;" d="M 16.710938 27.457031 C 14.953125 27.457031 13.519531 28.890625 13.519531 30.648438 C 13.519531 32.410156 14.953125 33.839844 16.710938 33.839844 C 18.46875 33.839844 19.902344 32.410156 19.902344 30.648438 C 19.902344 28.890625 18.46875 27.457031 16.710938 27.457031 Z M 16.710938 32.492188 C 15.695312 32.492188 14.867188 31.664062 14.867188 30.648438 C 14.867188 29.632812 15.695312 28.804688 16.710938 28.804688 C 17.726562 28.804688 18.554688 29.632812 18.554688 30.648438 C 18.554688 31.664062 17.726562 32.492188 16.710938 32.492188 Z M 16.710938 32.492188 "/>
<path style=" stroke:none;fill-rule:nonzero;fill:rgb(0%,0%,0%);fill-opacity:1;" d="M 45.671875 35.214844 L 42.429688 21.828125 C 41.964844 19.902344 41.035156 18.433594 39.675781 17.464844 C 39.394531 17.265625 39.097656 17.085938 38.785156 16.9375 L 38.785156 16.660156 C 38.785156 15.257812 37.648438 14.117188 36.246094 14.117188 L 34.738281 14.117188 C 33.335938 14.117188 32.195312 15.257812 32.195312 16.660156 L 32.195312 17.050781 C 31.652344 17.34375 31.222656 17.707031 30.964844 18.105469 L 24.46875 18.105469 C 24.097656 18.105469 23.796875 18.40625 23.796875 18.777344 C 23.796875 19.148438 24.097656 19.453125 24.46875 19.453125 L 30.71875 19.453125 L 30.71875 20.828125 C 30.71875 21.585938 30.101562 22.207031 29.34375 22.207031 L 16.640625 22.207031 C 15.878906 22.207031 15.261719 21.585938 15.261719 20.828125 L 15.261719 19.453125 L 21.359375 19.453125 C 21.730469 19.453125 22.03125 19.148438 22.03125 18.777344 C 22.03125 18.40625 21.730469 18.105469 21.359375 18.105469 L 15.015625 18.105469 C 14.757812 17.707031 14.328125 17.347656 13.785156 17.050781 L 13.785156 16.660156 C 13.785156 15.257812 12.648438 14.117188 11.246094 14.117188 L 9.738281 14.117188 C 8.335938 14.117188 7.195312 15.257812 7.195312 16.660156 L 7.195312 16.933594 C 6.886719 17.085938 6.589844 17.261719 6.308594 17.460938 C 4.945312 18.433594 4.019531 19.898438 3.550781 21.828125 L 0.308594 35.214844 C -0.167969 37.183594 -0.09375 38.851562 0.535156 40.167969 C 1.097656 41.34375 2.074219 42.175781 3.355469 42.570312 C 6.105469 43.417969 9.324219 42.003906 10.246094 39.550781 L 11.804688 35.402344 C 12.003906 34.867188 12.164062 34.800781 12.164062 34.800781 C 12.183594 34.796875 12.304688 34.8125 12.535156 34.980469 C 14.71875 36.960938 18.292969 36.875 20.644531 34.824219 L 25.335938 34.824219 C 26.425781 35.773438 27.808594 36.335938 29.261719 36.414062 C 30.847656 36.5 32.332031 35.988281 33.445312 34.980469 C 33.707031 34.789062 33.816406 34.796875 33.816406 34.800781 C 33.816406 34.800781 33.976562 34.867188 34.175781 35.402344 L 35.734375 39.550781 C 36.472656 41.519531 38.691406 42.816406 40.957031 42.816406 C 41.519531 42.816406 42.082031 42.738281 42.625 42.570312 C 43.910156 42.175781 44.882812 41.34375 45.445312 40.167969 C 46.074219 38.851562 46.152344 37.183594 45.671875 35.214844 Z M 34.738281 15.464844 L 36.246094 15.464844 C 36.832031 15.464844 37.316406 15.890625 37.417969 16.445312 C 36.859375 16.308594 36.273438 16.238281 35.667969 16.238281 C 35.65625 16.238281 35.648438 16.238281 35.640625 16.238281 C 34.910156 16.238281 34.199219 16.335938 33.550781 16.515625 C 33.625 15.925781 34.128906 15.464844 34.738281 15.464844 Z M 9.738281 15.464844 L 11.246094 15.464844 C 11.855469 15.464844 12.359375 15.925781 12.429688 16.515625 C 11.785156 16.335938 11.070312 16.238281 10.34375 16.238281 C 10.335938 16.238281 10.328125 16.238281 10.320312 16.238281 C 9.710938 16.238281 9.125 16.308594 8.5625 16.445312 C 8.664062 15.890625 9.152344 15.464844 9.738281 15.464844 Z M 42.230469 41.285156 C 40.363281 41.859375 37.730469 41.035156 36.996094 39.078125 L 35.4375 34.925781 C 35.136719 34.125 34.726562 33.660156 34.191406 33.507812 C 33.699219 33.363281 33.167969 33.503906 32.609375 33.921875 C 32.59375 33.933594 32.578125 33.949219 32.558594 33.964844 C 30.828125 35.558594 27.914062 35.421875 26.0625 33.660156 C 25.9375 33.542969 25.769531 33.476562 25.597656 33.476562 L 20.382812 33.476562 C 20.210938 33.476562 20.046875 33.542969 19.921875 33.660156 C 18.070312 35.421875 15.152344 35.558594 13.421875 33.964844 C 13.40625 33.949219 13.386719 33.933594 13.371094 33.921875 C 12.8125 33.503906 12.28125 33.363281 11.789062 33.507812 C 11.25 33.664062 10.84375 34.128906 10.542969 34.929688 L 8.984375 39.078125 C 8.25 41.035156 5.617188 41.859375 3.753906 41.285156 C 1.664062 40.640625 0.886719 38.546875 1.617188 35.53125 L 4.859375 22.144531 C 5.445312 19.726562 6.746094 18.5625 8.042969 18.023438 C 8.097656 18.007812 8.148438 17.988281 8.195312 17.960938 C 8.96875 17.667969 9.730469 17.585938 10.324219 17.582031 C 11.328125 17.582031 12.195312 17.796875 12.828125 18.074219 C 12.839844 18.078125 12.851562 18.085938 12.863281 18.089844 C 13.4375 18.34375 13.8125 18.652344 13.914062 18.882812 L 13.914062 20.828125 C 13.914062 22.328125 15.136719 23.550781 16.640625 23.550781 L 29.34375 23.550781 C 30.84375 23.550781 32.066406 22.328125 32.066406 20.828125 L 32.066406 18.882812 C 32.164062 18.652344 32.53125 18.351562 33.09375 18.097656 C 33.128906 18.085938 33.160156 18.074219 33.1875 18.054688 C 33.816406 17.789062 34.660156 17.582031 35.636719 17.582031 L 35.660156 17.582031 C 36.253906 17.585938 37.015625 17.667969 37.785156 17.960938 C 37.832031 17.988281 37.882812 18.007812 37.9375 18.023438 C 39.234375 18.5625 40.535156 19.726562 41.121094 22.144531 L 44.363281 35.53125 C 45.09375 38.546875 44.316406 40.640625 42.230469 41.285156 Z M 42.230469 41.285156 "/>
<path style=" stroke:none;fill-rule:nonzero;fill:rgb(0%,0%,0%);fill-opacity:1;" d="M 29.796875 27.457031 C 28.039062 27.457031 26.605469 28.890625 26.605469 30.648438 C 26.605469 32.410156 28.039062 33.839844 29.796875 33.839844 C 31.558594 33.839844 32.988281 32.410156 32.988281 30.648438 C 32.988281 28.890625 31.558594 27.457031 29.796875 27.457031 Z M 29.796875 32.492188 C 28.78125 32.492188 27.953125 31.664062 27.953125 30.648438 C 27.953125 29.632812 28.78125 28.804688 29.796875 28.804688 C 30.816406 28.804688 31.640625 29.632812 31.640625 30.648438 C 31.640625 31.664062 30.816406 32.492188 29.796875 32.492188 Z M 29.796875 32.492188 "/>
<path style=" stroke:none;fill-rule:nonzero;fill:rgb(0%,0%,0%);fill-opacity:1;" d="M 12.058594 23.125 L 11.851562 23.125 L 11.851562 22.921875 C 11.851562 21.78125 10.925781 20.855469 9.785156 20.855469 C 8.648438 20.855469 7.71875 21.78125 7.71875 22.921875 L 7.71875 23.125 L 7.515625 23.125 C 6.375 23.125 5.449219 24.050781 5.449219 25.191406 C 5.449219 26.328125 6.375 27.257812 7.515625 27.257812 L 7.71875 27.257812 L 7.71875 27.460938 C 7.71875 28.601562 8.648438 29.527344 9.785156 29.527344 C 10.925781 29.527344 11.851562 28.601562 11.851562 27.460938 L 11.851562 27.257812 L 12.058594 27.257812 C 13.195312 27.257812 14.125 26.328125 14.125 25.191406 C 14.125 24.050781 13.195312 23.125 12.058594 23.125 Z M 12.058594 25.910156 L 11.179688 25.910156 C 10.808594 25.910156 10.503906 26.210938 10.503906 26.582031 L 10.503906 27.460938 C 10.503906 27.859375 10.183594 28.179688 9.785156 28.179688 C 9.390625 28.179688 9.066406 27.859375 9.066406 27.460938 L 9.066406 26.582031 C 9.066406 26.210938 8.765625 25.910156 8.394531 25.910156 L 7.515625 25.910156 C 7.121094 25.910156 6.796875 25.585938 6.796875 25.191406 C 6.796875 24.792969 7.121094 24.472656 7.515625 24.472656 L 8.394531 24.472656 C 8.765625 24.472656 9.066406 24.171875 9.066406 23.796875 L 9.066406 22.921875 C 9.066406 22.523438 9.390625 22.199219 9.785156 22.199219 C 10.183594 22.199219 10.503906 22.523438 10.503906 22.921875 L 10.503906 23.796875 C 10.503906 24.171875 10.808594 24.472656 11.179688 24.472656 L 12.058594 24.472656 C 12.453125 24.472656 12.777344 24.792969 12.777344 25.191406 C 12.777344 25.585938 12.453125 25.910156 12.058594 25.910156 Z M 12.058594 25.910156 "/>
<path style=" stroke:none;fill-rule:nonzero;fill:rgb(0%,0%,0%);fill-opacity:1;" d="M 21.222656 25.617188 L 20.246094 25.617188 C 19.875 25.617188 19.574219 25.917969 19.574219 26.289062 C 19.574219 26.664062 19.875 26.964844 20.246094 26.964844 L 21.222656 26.964844 C 21.597656 26.964844 21.898438 26.664062 21.898438 26.289062 C 21.898438 25.917969 21.597656 25.617188 21.222656 25.617188 Z M 21.222656 25.617188 "/>
<path style=" stroke:none;fill-rule:nonzero;fill:rgb(0%,0%,0%);fill-opacity:1;" d="M 25.734375 25.617188 L 24.753906 25.617188 C 24.382812 25.617188 24.082031 25.917969 24.082031 26.289062 C 24.082031 26.664062 24.382812 26.964844 24.753906 26.964844 L 25.734375 26.964844 C 26.105469 26.964844 26.410156 26.664062 26.410156 26.289062 C 26.410156 25.917969 26.105469 25.617188 25.734375 25.617188 Z M 25.734375 25.617188 "/>
<path style=" stroke:none;fill-rule:nonzero;fill:rgb(0%,0%,0%);fill-opacity:1;" d="M 23.738281 29.144531 L 22.761719 29.144531 C 22.390625 29.144531 22.089844 29.445312 22.089844 29.820312 C 22.089844 30.191406 22.390625 30.492188 22.761719 30.492188 L 23.738281 30.492188 C 24.113281 30.492188 24.414062 30.191406 24.414062 29.820312 C 24.414062 29.445312 24.113281 29.144531 23.738281 29.144531 Z M 23.738281 29.144531 "/>
</g>
</svg>
