<?xml version="1.0" encoding="UTF-8"?>
<svg xmlns="http://www.w3.org/2000/svg" xmlns:xlink="http://www.w3.org/1999/xlink" width="46pt" height="46pt" viewBox="0 0 46 46" version="1.1">
<g id="surface1">
<path style=" stroke:none;fill-rule:nonzero;fill:rgb(0%,0%,0%);fill-opacity:1;" d="M 44.605469 20.164062 L 43.648438 20.164062 C 43.164062 16.613281 41.773438 13.253906 39.59375 10.394531 C 39.996094 9.902344 40.238281 9.277344 40.238281 8.597656 C 40.238281 7.03125 38.96875 5.761719 37.402344 5.761719 C 36.722656 5.761719 36.097656 6.003906 35.609375 6.40625 C 32.746094 4.226562 29.386719 2.835938 25.835938 2.351562 L 25.835938 1.394531 C 25.835938 0.625 25.210938 0 24.441406 0 L 21.558594 0 C 20.789062 0 20.164062 0.625 20.164062 1.394531 L 20.164062 2.351562 C 16.613281 2.835938 13.253906 4.226562 10.394531 6.40625 C 9.902344 6.003906 9.277344 5.761719 8.597656 5.761719 C 7.03125 5.761719 5.761719 7.03125 5.761719 8.597656 C 5.761719 9.277344 6.003906 9.902344 6.40625 10.394531 C 4.226562 13.253906 2.835938 16.613281 2.351562 20.164062 L 1.394531 20.164062 C 0.625 20.164062 0 20.789062 0 21.558594 L 0 24.441406 C 0 25.210938 0.625 25.835938 1.394531 25.835938 L 2.351562 25.835938 C 2.835938 29.386719 4.226562 32.746094 6.40625 35.605469 C 6.003906 36.097656 5.761719 36.722656 5.761719 37.402344 C 5.761719 38.96875 7.03125 40.238281 8.597656 40.238281 C 9.277344 40.238281 9.902344 39.996094 10.390625 39.59375 C 13.253906 41.773438 16.613281 43.164062 20.164062 43.648438 L 20.164062 44.605469 C 20.164062 45.375 20.789062 46 21.558594 46 L 24.441406 46 C 25.207031 46 25.835938 45.375 25.835938 44.605469 L 25.835938 43.648438 C 29.386719 43.164062 32.746094 41.773438 35.605469 39.59375 C 36.097656 39.996094 36.722656 40.238281 37.402344 40.238281 C 38.964844 40.238281 40.238281 38.96875 40.238281 37.402344 C 40.238281 36.722656 39.996094 36.097656 39.59375 35.605469 C 41.769531 32.746094 43.164062 29.386719 43.648438 25.835938 L 44.605469 25.835938 C 45.375 25.835938 46 25.210938 46 24.441406 L 46 21.558594 C 46 20.789062 45.375 20.164062 44.605469 20.164062 Z M 37.402344 7.109375 C 38.222656 7.109375 38.890625 7.777344 38.890625 8.597656 C 38.890625 9.414062 38.222656 10.082031 37.402344 10.082031 C 36.585938 10.082031 35.917969 9.414062 35.917969 8.597656 C 35.917969 7.777344 36.585938 7.109375 37.402344 7.109375 Z M 21.558594 1.347656 L 24.441406 1.347656 C 24.464844 1.347656 24.488281 1.367188 24.488281 1.394531 L 24.488281 4.273438 C 24.488281 4.300781 24.464844 4.320312 24.441406 4.320312 L 21.558594 4.320312 C 21.535156 4.320312 21.511719 4.300781 21.511719 4.273438 L 21.511719 1.394531 C 21.511719 1.367188 21.535156 1.347656 21.558594 1.347656 Z M 8.597656 7.109375 C 9.414062 7.109375 10.082031 7.777344 10.082031 8.597656 C 10.082031 9.414062 9.414062 10.082031 8.597656 10.082031 C 7.777344 10.082031 7.109375 9.414062 7.109375 8.597656 C 7.109375 7.777344 7.777344 7.109375 8.597656 7.109375 Z M 1.347656 24.441406 L 1.347656 21.558594 C 1.347656 21.535156 1.367188 21.511719 1.394531 21.511719 L 4.273438 21.511719 C 4.300781 21.511719 4.320312 21.535156 4.320312 21.558594 L 4.320312 24.441406 C 4.320312 24.464844 4.300781 24.488281 4.273438 24.488281 L 1.394531 24.488281 C 1.367188 24.488281 1.347656 24.464844 1.347656 24.441406 Z M 8.597656 38.890625 C 7.777344 38.890625 7.109375 38.222656 7.109375 37.402344 C 7.109375 36.585938 7.777344 35.917969 8.597656 35.917969 C 9.414062 35.917969 10.082031 36.585938 10.082031 37.402344 C 10.082031 38.222656 9.414062 38.890625 8.597656 38.890625 Z M 24.441406 44.652344 L 21.558594 44.652344 C 21.535156 44.652344 21.511719 44.632812 21.511719 44.605469 L 21.511719 41.726562 C 21.511719 41.699219 21.535156 41.679688 21.558594 41.679688 L 24.441406 41.679688 C 24.464844 41.679688 24.488281 41.699219 24.488281 41.726562 L 24.488281 44.605469 C 24.488281 44.632812 24.464844 44.652344 24.441406 44.652344 Z M 37.402344 38.890625 C 36.585938 38.890625 35.917969 38.222656 35.917969 37.402344 C 35.917969 36.585938 36.585938 35.917969 37.402344 35.917969 C 38.222656 35.917969 38.890625 36.585938 38.890625 37.402344 C 38.890625 38.222656 38.222656 38.890625 37.402344 38.890625 Z M 38.515625 34.796875 C 38.175781 34.652344 37.800781 34.570312 37.402344 34.570312 C 35.839844 34.570312 34.570312 35.839844 34.570312 37.402344 C 34.570312 37.800781 34.652344 38.175781 34.796875 38.515625 C 32.167969 40.519531 29.089844 41.8125 25.835938 42.285156 L 25.835938 41.726562 C 25.835938 40.957031 25.210938 40.332031 24.441406 40.332031 L 23.671875 40.332031 L 23.671875 37.402344 C 23.671875 37.03125 23.371094 36.730469 23 36.730469 C 22.628906 36.730469 22.324219 37.03125 22.324219 37.402344 L 22.324219 40.332031 L 21.558594 40.332031 C 20.789062 40.332031 20.164062 40.957031 20.164062 41.726562 L 20.164062 42.285156 C 16.910156 41.8125 13.832031 40.519531 11.203125 38.515625 C 11.347656 38.175781 11.429688 37.800781 11.429688 37.402344 C 11.429688 35.839844 10.160156 34.570312 8.597656 34.570312 C 8.199219 34.570312 7.824219 34.652344 7.484375 34.796875 C 5.480469 32.167969 4.1875 29.089844 3.714844 25.835938 L 4.273438 25.835938 C 5.042969 25.835938 5.667969 25.210938 5.667969 24.441406 L 5.667969 23.671875 L 8.597656 23.671875 C 8.96875 23.671875 9.269531 23.371094 9.269531 23 C 9.269531 22.628906 8.96875 22.324219 8.597656 22.324219 L 5.667969 22.324219 L 5.667969 21.558594 C 5.667969 20.789062 5.042969 20.164062 4.273438 20.164062 L 3.714844 20.164062 C 4.1875 16.910156 5.480469 13.832031 7.484375 11.203125 C 7.824219 11.347656 8.199219 11.429688 8.597656 11.429688 C 10.160156 11.429688 11.429688 10.160156 11.429688 8.597656 C 11.429688 8.199219 11.347656 7.824219 11.203125 7.484375 C 13.832031 5.480469 16.910156 4.1875 20.164062 3.714844 L 20.164062 4.273438 C 20.164062 5.042969 20.789062 5.667969 21.558594 5.667969 L 22.324219 5.667969 L 22.324219 8.597656 C 22.324219 8.96875 22.628906 9.269531 23 9.269531 C 23.371094 9.269531 23.671875 8.96875 23.671875 8.597656 L 23.671875 5.667969 L 24.441406 5.667969 C 25.210938 5.667969 25.835938 5.042969 25.835938 4.273438 L 25.835938 3.714844 C 29.089844 4.1875 32.167969 5.480469 34.796875 7.484375 C 34.652344 7.824219 34.570312 8.199219 34.570312 8.597656 C 34.570312 10.160156 35.839844 11.429688 37.402344 11.429688 C 37.796875 11.429688 38.175781 11.347656 38.515625 11.203125 C 40.519531 13.832031 41.8125 16.910156 42.285156 20.164062 L 41.726562 20.164062 C 40.957031 20.164062 40.332031 20.789062 40.332031 21.558594 L 40.332031 22.328125 L 37.402344 22.328125 C 37.03125 22.328125 36.730469 22.628906 36.730469 23 C 36.730469 23.371094 37.03125 23.675781 37.402344 23.675781 L 40.332031 23.675781 L 40.332031 24.441406 C 40.332031 25.210938 40.957031 25.835938 41.726562 25.835938 L 42.285156 25.835938 C 41.8125 29.089844 40.519531 32.167969 38.515625 34.796875 Z M 44.652344 24.441406 C 44.652344 24.464844 44.632812 24.488281 44.605469 24.488281 L 41.726562 24.488281 C 41.699219 24.488281 41.679688 24.464844 41.679688 24.441406 L 41.679688 21.558594 C 41.679688 21.535156 41.699219 21.511719 41.726562 21.511719 L 44.605469 21.511719 C 44.632812 21.511719 44.652344 21.535156 44.652344 21.558594 Z M 44.652344 24.441406 "/>
<path style=" stroke:none;fill-rule:nonzero;fill:rgb(0%,0%,0%);fill-opacity:1;" d="M 34.488281 20.792969 L 32.742188 20.585938 C 32.5 19.605469 32.117188 18.675781 31.59375 17.816406 L 32.683594 16.4375 C 32.875 16.195312 32.878906 15.855469 32.691406 15.613281 C 32.3125 15.117188 31.976562 14.726562 31.625 14.375 C 31.273438 14.023438 30.878906 13.683594 30.386719 13.308594 C 30.144531 13.121094 29.804688 13.125 29.5625 13.316406 L 28.183594 14.40625 C 27.320312 13.882812 26.394531 13.5 25.414062 13.257812 L 25.207031 11.511719 C 25.171875 11.207031 24.933594 10.964844 24.628906 10.921875 C 24.011719 10.839844 23.496094 10.804688 23 10.804688 C 22.503906 10.804688 21.984375 10.839844 21.371094 10.921875 C 21.066406 10.964844 20.828125 11.207031 20.792969 11.511719 L 20.585938 13.257812 C 19.605469 13.5 18.675781 13.882812 17.816406 14.40625 L 16.4375 13.316406 C 16.195312 13.125 15.855469 13.121094 15.613281 13.308594 C 15.117188 13.6875 14.726562 14.023438 14.375 14.375 C 14.023438 14.726562 13.683594 15.121094 13.308594 15.613281 C 13.121094 15.855469 13.125 16.195312 13.316406 16.4375 L 14.402344 17.816406 C 13.882812 18.675781 13.5 19.605469 13.257812 20.585938 L 11.511719 20.792969 C 11.207031 20.828125 10.964844 21.066406 10.921875 21.371094 C 10.839844 21.988281 10.800781 22.503906 10.800781 23 C 10.800781 23.496094 10.839844 24.011719 10.921875 24.628906 C 10.964844 24.933594 11.207031 25.171875 11.511719 25.207031 L 13.257812 25.414062 C 13.5 26.394531 13.882812 27.324219 14.402344 28.183594 L 13.316406 29.5625 C 13.125 29.804688 13.121094 30.144531 13.308594 30.386719 C 13.683594 30.882812 14.023438 31.273438 14.375 31.625 C 14.726562 31.976562 15.117188 32.316406 15.609375 32.691406 C 15.855469 32.878906 16.195312 32.875 16.4375 32.683594 L 17.816406 31.597656 C 18.675781 32.117188 19.605469 32.5 20.585938 32.742188 L 20.792969 34.488281 C 20.828125 34.792969 21.066406 35.035156 21.371094 35.078125 C 21.984375 35.160156 22.503906 35.195312 23 35.195312 C 23.496094 35.195312 24.011719 35.160156 24.628906 35.078125 C 24.933594 35.035156 25.171875 34.792969 25.207031 34.488281 L 25.414062 32.742188 C 26.394531 32.5 27.320312 32.117188 28.183594 31.597656 L 29.5625 32.683594 C 29.804688 32.875 30.144531 32.878906 30.386719 32.691406 C 30.878906 32.316406 31.273438 31.976562 31.625 31.625 C 31.976562 31.273438 32.3125 30.882812 32.691406 30.386719 C 32.878906 30.144531 32.875 29.804688 32.683594 29.5625 L 31.59375 28.183594 C 32.117188 27.324219 32.5 26.394531 32.738281 25.414062 L 34.488281 25.207031 C 34.792969 25.171875 35.035156 24.933594 35.078125 24.628906 C 35.160156 24.011719 35.195312 23.496094 35.195312 23 C 35.195312 22.503906 35.160156 21.988281 35.078125 21.371094 C 35.035156 21.066406 34.792969 20.828125 34.488281 20.792969 Z M 33.800781 23.929688 L 32.105469 24.132812 C 31.816406 24.164062 31.582031 24.382812 31.523438 24.671875 C 31.300781 25.816406 30.859375 26.886719 30.210938 27.847656 C 30.046875 28.089844 30.058594 28.410156 30.242188 28.640625 L 31.296875 29.980469 C 31.082031 30.238281 30.878906 30.464844 30.671875 30.671875 C 30.464844 30.878906 30.238281 31.082031 29.980469 31.296875 L 28.640625 30.242188 C 28.410156 30.058594 28.089844 30.046875 27.847656 30.210938 C 26.886719 30.859375 25.816406 31.300781 24.671875 31.523438 C 24.382812 31.582031 24.164062 31.816406 24.132812 32.105469 L 23.929688 33.800781 C 23.597656 33.832031 23.292969 33.847656 23 33.847656 C 22.707031 33.847656 22.402344 33.832031 22.066406 33.800781 L 21.867188 32.105469 C 21.835938 31.816406 21.617188 31.582031 21.328125 31.523438 C 20.183594 31.300781 19.113281 30.859375 18.152344 30.210938 C 17.910156 30.046875 17.589844 30.058594 17.359375 30.242188 L 16.019531 31.296875 C 15.761719 31.082031 15.535156 30.878906 15.328125 30.671875 C 15.121094 30.464844 14.917969 30.238281 14.703125 29.980469 L 15.757812 28.640625 C 15.941406 28.410156 15.953125 28.089844 15.789062 27.847656 C 15.140625 26.886719 14.699219 25.816406 14.476562 24.671875 C 14.417969 24.382812 14.183594 24.164062 13.894531 24.132812 L 12.199219 23.929688 C 12.164062 23.597656 12.152344 23.292969 12.152344 23 C 12.152344 22.707031 12.164062 22.402344 12.199219 22.070312 L 13.894531 21.867188 C 14.183594 21.835938 14.417969 21.617188 14.476562 21.328125 C 14.699219 20.183594 15.140625 19.113281 15.789062 18.152344 C 15.953125 17.910156 15.941406 17.589844 15.757812 17.359375 L 14.703125 16.019531 C 14.917969 15.761719 15.121094 15.535156 15.328125 15.328125 C 15.535156 15.121094 15.761719 14.917969 16.019531 14.703125 L 17.359375 15.757812 C 17.585938 15.941406 17.910156 15.953125 18.152344 15.789062 C 19.113281 15.140625 20.183594 14.699219 21.328125 14.476562 C 21.617188 14.417969 21.835938 14.183594 21.867188 13.894531 L 22.066406 12.199219 C 22.402344 12.167969 22.707031 12.152344 23 12.152344 C 23.292969 12.152344 23.597656 12.167969 23.929688 12.199219 L 24.128906 13.894531 C 24.164062 14.183594 24.382812 14.417969 24.671875 14.476562 C 25.816406 14.699219 26.886719 15.140625 27.847656 15.789062 C 28.089844 15.953125 28.410156 15.941406 28.640625 15.757812 L 29.980469 14.703125 C 30.238281 14.917969 30.464844 15.121094 30.671875 15.328125 C 30.878906 15.535156 31.082031 15.761719 31.296875 16.019531 L 30.242188 17.359375 C 30.058594 17.589844 30.046875 17.910156 30.210938 18.152344 C 30.859375 19.113281 31.300781 20.183594 31.523438 21.328125 C 31.582031 21.617188 31.816406 21.835938 32.105469 21.867188 L 33.800781 22.070312 C 33.832031 22.402344 33.847656 22.707031 33.847656 23 C 33.847656 23.292969 33.832031 23.597656 33.800781 23.929688 Z M 33.800781 23.929688 "/>
<path style=" stroke:none;fill-rule:nonzero;fill:rgb(0%,0%,0%);fill-opacity:1;" d="M 23 18.632812 C 23.726562 18.632812 24.445312 18.8125 25.078125 19.15625 C 25.40625 19.335938 25.8125 19.214844 25.992188 18.886719 C 26.167969 18.558594 26.046875 18.148438 25.71875 17.972656 C 24.890625 17.523438 23.949219 17.285156 23 17.285156 C 19.847656 17.285156 17.285156 19.847656 17.285156 23 C 17.285156 23.949219 17.523438 24.890625 17.972656 25.71875 C 18.09375 25.945312 18.324219 26.070312 18.566406 26.070312 C 18.671875 26.070312 18.785156 26.046875 18.886719 25.992188 C 19.210938 25.8125 19.335938 25.40625 19.15625 25.078125 C 18.8125 24.445312 18.632812 23.726562 18.632812 23 C 18.632812 20.589844 20.589844 18.632812 23 18.632812 Z M 23 18.632812 "/>
<path style=" stroke:none;fill-rule:nonzero;fill:rgb(0%,0%,0%);fill-opacity:1;" d="M 27.113281 20.007812 C 26.785156 20.1875 26.664062 20.59375 26.84375 20.921875 C 27.1875 21.554688 27.367188 22.273438 27.367188 23 C 27.367188 25.410156 25.410156 27.367188 23 27.367188 C 22.273438 27.367188 21.554688 27.1875 20.921875 26.84375 C 20.59375 26.664062 20.1875 26.785156 20.007812 27.113281 C 19.832031 27.441406 19.953125 27.851562 20.28125 28.027344 C 21.109375 28.476562 22.050781 28.714844 23 28.714844 C 26.152344 28.714844 28.714844 26.152344 28.714844 23 C 28.714844 22.050781 28.476562 21.109375 28.027344 20.28125 C 27.851562 19.953125 27.441406 19.832031 27.113281 20.007812 Z M 27.113281 20.007812 "/>
</g>
</svg>
