<?xml version="1.0" encoding="UTF-8"?>
<svg xmlns="http://www.w3.org/2000/svg" xmlns:xlink="http://www.w3.org/1999/xlink" width="46pt" height="46pt" viewBox="0 0 46 46" version="1.1">
<g id="surface1">
<path style=" stroke:none;fill-rule:nonzero;fill:rgb(30.980392%,64.313725%,81.960784%);fill-opacity:1;" d="M 3.132812 11.328125 L 42.867188 11.328125 C 44.597656 11.328125 46 12.730469 46 14.460938 L 46 36.949219 C 46 38.675781 44.597656 40.078125 42.867188 40.078125 L 3.132812 40.078125 C 1.402344 40.078125 0 38.675781 0 36.949219 L 0 14.460938 C 0 12.730469 1.402344 11.328125 3.132812 11.328125 Z M 3.132812 11.328125 "/>
<path style=" stroke:none;fill-rule:nonzero;fill:rgb(85.882353%,88.627451%,92.156863%);fill-opacity:1;" d="M 2.867188 17.394531 L 43.132812 17.394531 L 43.132812 37.1875 L 2.867188 37.1875 Z M 2.867188 17.394531 "/>
<path style=" stroke:none;fill-rule:nonzero;fill:rgb(72.941176%,76.078431%,82.745098%);fill-opacity:1;" d="M 19.386719 27.292969 C 19.386719 31.179688 16.238281 34.328125 12.351562 34.332031 C 8.464844 34.332031 5.3125 31.179688 5.3125 27.296875 C 5.3125 23.410156 8.460938 20.257812 12.347656 20.257812 C 14.214844 20.25 16.007812 20.992188 17.328125 22.3125 C 18.648438 23.632812 19.390625 25.425781 19.386719 27.292969 Z M 19.386719 27.292969 "/>
<path style=" stroke:none;fill-rule:nonzero;fill:rgb(43.921569%,45.882353%,51.372549%);fill-opacity:1;" d="M 17.441406 32.144531 C 16.117188 33.539062 14.273438 34.328125 12.347656 34.328125 C 10.421875 34.324219 8.582031 33.535156 7.253906 32.140625 L 7.253906 32.117188 C 7.261719 32.019531 7.277344 31.917969 7.296875 31.824219 C 7.390625 31.386719 7.609375 30.992188 7.929688 30.683594 C 8.109375 30.511719 8.316406 30.371094 8.539062 30.265625 L 10.105469 29.53125 L 10.921875 28.8125 L 10.992188 28.449219 C 10.683594 28.152344 10.445312 27.792969 10.285156 27.398438 C 10.25 27.433594 10.203125 27.457031 10.152344 27.46875 C 9.902344 27.527344 9.609375 27.210938 9.503906 26.757812 C 9.398438 26.3125 9.515625 25.902344 9.761719 25.835938 C 9.714844 25.671875 9.664062 25.496094 9.609375 25.296875 C 9.292969 23.878906 10.136719 22.460938 11.535156 22.0625 C 13.121094 21.675781 13.765625 22.628906 13.765625 22.628906 C 14.242188 22.628906 15.042969 23.003906 15.222656 24.191406 C 15.28125 24.761719 15.203125 25.339844 15 25.875 C 15.214844 26.117188 15.28125 26.453125 15.171875 26.757812 C 15.066406 27.210938 14.773438 27.527344 14.523438 27.46875 C 14.472656 27.457031 14.429688 27.433594 14.390625 27.398438 C 14.234375 27.785156 14 28.136719 13.707031 28.433594 L 13.773438 28.816406 L 14.589844 29.53125 L 14.824219 29.636719 L 16.15625 30.261719 C 16.382812 30.371094 16.585938 30.511719 16.769531 30.683594 C 17.085938 30.992188 17.304688 31.386719 17.398438 31.820312 C 17.417969 31.917969 17.433594 32.015625 17.441406 32.117188 Z M 17.441406 32.144531 "/>
<path style=" stroke:none;fill-rule:nonzero;fill:rgb(72.941176%,76.078431%,82.745098%);fill-opacity:1;" d="M 39.074219 22.394531 L 23.976562 22.394531 C 23.777344 22.394531 23.617188 22.234375 23.617188 22.035156 C 23.617188 21.835938 23.777344 21.675781 23.976562 21.675781 L 39.074219 21.675781 C 39.273438 21.675781 39.433594 21.835938 39.433594 22.035156 C 39.433594 22.234375 39.273438 22.394531 39.074219 22.394531 Z M 39.074219 22.394531 "/>
<path style=" stroke:none;fill-rule:nonzero;fill:rgb(72.941176%,76.078431%,82.745098%);fill-opacity:1;" d="M 39.074219 25.898438 L 23.976562 25.898438 C 23.777344 25.898438 23.617188 25.738281 23.617188 25.539062 C 23.617188 25.339844 23.777344 25.179688 23.976562 25.179688 L 39.074219 25.179688 C 39.273438 25.179688 39.433594 25.339844 39.433594 25.539062 C 39.433594 25.738281 39.273438 25.898438 39.074219 25.898438 Z M 39.074219 25.898438 "/>
<path style=" stroke:none;fill-rule:nonzero;fill:rgb(72.941176%,76.078431%,82.745098%);fill-opacity:1;" d="M 39.074219 29.402344 L 23.976562 29.402344 C 23.777344 29.402344 23.617188 29.242188 23.617188 29.042969 C 23.617188 28.84375 23.777344 28.683594 23.976562 28.683594 L 39.074219 28.683594 C 39.273438 28.683594 39.433594 28.84375 39.433594 29.042969 C 39.433594 29.242188 39.273438 29.402344 39.074219 29.402344 Z M 39.074219 29.402344 "/>
<path style=" stroke:none;fill-rule:nonzero;fill:rgb(72.941176%,76.078431%,82.745098%);fill-opacity:1;" d="M 39.074219 32.90625 L 23.976562 32.90625 C 23.777344 32.90625 23.617188 32.746094 23.617188 32.546875 C 23.617188 32.347656 23.777344 32.1875 23.976562 32.1875 L 39.074219 32.1875 C 39.273438 32.1875 39.433594 32.347656 39.433594 32.546875 C 39.433594 32.746094 39.273438 32.90625 39.074219 32.90625 Z M 39.074219 32.90625 "/>
<path style=" stroke:none;fill-rule:nonzero;fill:rgb(18.431373%,22.745098%,35.294118%);fill-opacity:1;" d="M 23.957031 5.921875 C 22.714844 5.921875 21.707031 6.929688 21.707031 8.171875 L 21.707031 13.929688 C 21.699219 14.738281 22.125 15.492188 22.824219 15.902344 C 23.527344 16.308594 24.390625 16.308594 25.09375 15.902344 C 25.792969 15.492188 26.21875 14.738281 26.207031 13.929688 L 26.207031 8.171875 C 26.210938 6.929688 25.203125 5.921875 23.957031 5.921875 Z M 23.957031 5.921875 "/>
<path style=" stroke:none;fill-rule:nonzero;fill:rgb(85.882353%,88.627451%,92.156863%);fill-opacity:1;" d="M 25.316406 8.195312 C 25.316406 8.945312 24.707031 9.554688 23.957031 9.554688 C 23.210938 9.554688 22.601562 8.945312 22.601562 8.195312 C 22.601562 7.445312 23.210938 6.839844 23.957031 6.839844 C 24.707031 6.839844 25.316406 7.445312 25.316406 8.195312 Z M 25.316406 8.195312 "/>
</g>
</svg>
