<?xml version="1.0" encoding="UTF-8"?>
<svg xmlns="http://www.w3.org/2000/svg" xmlns:xlink="http://www.w3.org/1999/xlink" width="38pt" height="38pt" viewBox="0 0 38 38" version="1.1">
<g id="surface1">
<path style=" stroke:none;fill-rule:nonzero;fill:rgb(0%,0%,0%);fill-opacity:1;" d="M 34.042969 33.25 L 3.957031 33.25 C 1.777344 33.25 0 31.472656 0 29.292969 L 0 8.707031 C 0 6.527344 1.777344 4.75 3.957031 4.75 L 34.042969 4.75 C 36.222656 4.75 38 6.527344 38 8.707031 L 38 29.292969 C 38 31.472656 36.222656 33.25 34.042969 33.25 Z M 3.957031 6.332031 C 2.648438 6.332031 1.582031 7.398438 1.582031 8.707031 L 1.582031 29.292969 C 1.582031 30.601562 2.648438 31.667969 3.957031 31.667969 L 34.042969 31.667969 C 35.351562 31.667969 36.417969 30.601562 36.417969 29.292969 L 36.417969 8.707031 C 36.417969 7.398438 35.351562 6.332031 34.042969 6.332031 Z M 3.957031 6.332031 "/>
<path style=" stroke:none;fill-rule:nonzero;fill:rgb(0%,0%,0%);fill-opacity:1;" d="M 11.875 19 C 9.691406 19 7.917969 17.222656 7.917969 15.042969 C 7.917969 12.859375 9.691406 11.082031 11.875 11.082031 C 14.058594 11.082031 15.832031 12.859375 15.832031 15.042969 C 15.832031 17.222656 14.058594 19 11.875 19 Z M 11.875 12.667969 C 10.566406 12.667969 9.5 13.730469 9.5 15.042969 C 9.5 16.351562 10.566406 17.417969 11.875 17.417969 C 13.183594 17.417969 14.25 16.351562 14.25 15.042969 C 14.25 13.730469 13.183594 12.667969 11.875 12.667969 Z M 11.875 12.667969 "/>
<path style=" stroke:none;fill-rule:nonzero;fill:rgb(0%,0%,0%);fill-opacity:1;" d="M 18.207031 26.917969 C 17.769531 26.917969 17.417969 26.5625 17.417969 26.125 L 17.417969 24.542969 C 17.417969 23.230469 16.351562 22.167969 15.042969 22.167969 L 8.707031 22.167969 C 7.398438 22.167969 6.332031 23.230469 6.332031 24.542969 L 6.332031 26.125 C 6.332031 26.5625 5.980469 26.917969 5.542969 26.917969 C 5.105469 26.917969 4.75 26.5625 4.75 26.125 L 4.75 24.542969 C 4.75 22.359375 6.527344 20.582031 8.707031 20.582031 L 15.042969 20.582031 C 17.222656 20.582031 19 22.359375 19 24.542969 L 19 26.125 C 19 26.5625 18.644531 26.917969 18.207031 26.917969 Z M 18.207031 26.917969 "/>
<path style=" stroke:none;fill-rule:nonzero;fill:rgb(0%,0%,0%);fill-opacity:1;" d="M 32.457031 14.25 L 22.957031 14.25 C 22.519531 14.25 22.167969 13.894531 22.167969 13.457031 C 22.167969 13.019531 22.519531 12.667969 22.957031 12.667969 L 32.457031 12.667969 C 32.894531 12.667969 33.25 13.019531 33.25 13.457031 C 33.25 13.894531 32.894531 14.25 32.457031 14.25 Z M 32.457031 14.25 "/>
<path style=" stroke:none;fill-rule:nonzero;fill:rgb(0%,0%,0%);fill-opacity:1;" d="M 32.457031 20.582031 L 22.957031 20.582031 C 22.519531 20.582031 22.167969 20.230469 22.167969 19.792969 C 22.167969 19.355469 22.519531 19 22.957031 19 L 32.457031 19 C 32.894531 19 33.25 19.355469 33.25 19.792969 C 33.25 20.230469 32.894531 20.582031 32.457031 20.582031 Z M 32.457031 20.582031 "/>
<path style=" stroke:none;fill-rule:nonzero;fill:rgb(0%,0%,0%);fill-opacity:1;" d="M 32.457031 26.917969 L 22.957031 26.917969 C 22.519531 26.917969 22.167969 26.5625 22.167969 26.125 C 22.167969 25.6875 22.519531 25.332031 22.957031 25.332031 L 32.457031 25.332031 C 32.894531 25.332031 33.25 25.6875 33.25 26.125 C 33.25 26.5625 32.894531 26.917969 32.457031 26.917969 Z M 32.457031 26.917969 "/>
</g>
</svg>
