<?xml version="1.0" encoding="UTF-8"?>
<svg xmlns="http://www.w3.org/2000/svg" xmlns:xlink="http://www.w3.org/1999/xlink" width="46pt" height="46pt" viewBox="0 0 46 46" version="1.1">
<g id="surface1">
<path style=" stroke:none;fill-rule:nonzero;fill:rgb(0%,0%,0%);fill-opacity:1;" d="M 45 0 L 27 0 C 25.367188 0 23.914062 0.789062 23 2.003906 C 22.085938 0.789062 20.632812 0 19 0 L 1 0 C 0.449219 0 0 0.449219 0 1 L 0 41 C 0 41.550781 0.449219 42 1 42 L 19 42 C 20.652344 42 22 43.347656 22 45 C 22 45.550781 22.449219 46 23 46 C 23.550781 46 24 45.550781 24 45 C 24 43.347656 25.347656 42 27 42 L 45 42 C 45.554688 42 46 41.550781 46 41 L 46 1 C 46 0.449219 45.554688 0 45 0 Z M 22 41.011719 C 21.164062 40.378906 20.125 40 19 40 L 2 40 L 2 2 L 19 2 C 20.652344 2 22 3.347656 22 5 Z M 44 40 L 27 40 C 25.871094 40 24.835938 40.378906 24 41.011719 L 24 5 C 24 3.347656 25.347656 2 27 2 L 44 2 Z M 44 40 "/>
<path style=" stroke:none;fill-rule:nonzero;fill:rgb(0%,0%,0%);fill-opacity:1;" d="M 29 24 L 39 24 C 39.554688 24 40 23.550781 40 23 L 40 7 C 40 6.449219 39.554688 6 39 6 L 29 6 C 28.445312 6 28 6.449219 28 7 L 28 23 C 28 23.550781 28.445312 24 29 24 Z M 30 8 L 38 8 L 38 22 L 30 22 Z M 30 8 "/>
<path style=" stroke:none;fill-rule:nonzero;fill:rgb(0%,0%,0%);fill-opacity:1;" d="M 17 6 L 7 6 C 6.449219 6 6 6.449219 6 7 L 6 23 C 6 23.550781 6.449219 24 7 24 L 17 24 C 17.550781 24 18 23.550781 18 23 L 18 7 C 18 6.449219 17.550781 6 17 6 Z M 16 22 L 8 22 L 8 8 L 16 8 Z M 16 22 "/>
<path style=" stroke:none;fill-rule:nonzero;fill:rgb(0%,0%,0%);fill-opacity:1;" d="M 17 28 L 7 28 C 6.449219 28 6 28.449219 6 29 C 6 29.550781 6.449219 30 7 30 L 17 30 C 17.550781 30 18 29.550781 18 29 C 18 28.449219 17.550781 28 17 28 Z M 17 28 "/>
<path style=" stroke:none;fill-rule:nonzero;fill:rgb(0%,0%,0%);fill-opacity:1;" d="M 17 34 L 7 34 C 6.449219 34 6 34.449219 6 35 C 6 35.550781 6.449219 36 7 36 L 17 36 C 17.550781 36 18 35.550781 18 35 C 18 34.449219 17.550781 34 17 34 Z M 17 34 "/>
<path style=" stroke:none;fill-rule:nonzero;fill:rgb(0%,0%,0%);fill-opacity:1;" d="M 29 30 L 39 30 C 39.554688 30 40 29.550781 40 29 C 40 28.449219 39.554688 28 39 28 L 29 28 C 28.445312 28 28 28.449219 28 29 C 28 29.550781 28.445312 30 29 30 Z M 29 30 "/>
<path style=" stroke:none;fill-rule:nonzero;fill:rgb(0%,0%,0%);fill-opacity:1;" d="M 29 36 L 39 36 C 39.554688 36 40 35.550781 40 35 C 40 34.449219 39.554688 34 39 34 L 29 34 C 28.445312 34 28 34.449219 28 35 C 28 35.550781 28.445312 36 29 36 Z M 29 36 "/>
</g>
</svg>
