<?xml version="1.0" encoding="UTF-8"?>
<svg xmlns="http://www.w3.org/2000/svg" xmlns:xlink="http://www.w3.org/1999/xlink" width="38pt" height="38pt" viewBox="0 0 38 38" version="1.1">
<g id="surface1">
<path style=" stroke:none;fill-rule:nonzero;fill:rgb(0%,0%,0%);fill-opacity:1;" d="M 37.191406 14.242188 L 2.347656 14.242188 C 1.910156 14.242188 1.554688 14.597656 1.554688 15.03125 L 1.554688 34.039062 C 1.554688 36.222656 3.332031 38 5.515625 38 L 34.023438 38 C 36.210938 38 37.984375 36.222656 37.984375 34.039062 L 37.984375 15.03125 C 37.984375 14.597656 37.628906 14.242188 37.191406 14.242188 Z M 36.402344 34.039062 C 36.402344 35.351562 35.335938 36.417969 34.023438 36.417969 L 5.515625 36.417969 C 4.203125 36.417969 3.136719 35.351562 3.136719 34.039062 L 3.136719 15.824219 L 36.402344 15.824219 Z M 36.402344 34.039062 "/>
<path style=" stroke:none;fill-rule:nonzero;fill:rgb(0%,0%,0%);fill-opacity:1;" d="M 37.960938 6.914062 L 36.613281 1.796875 C 36.300781 0.554688 35.03125 -0.226562 33.773438 0.0585938 L 1.863281 7.628906 C 1.234375 7.773438 0.703125 8.152344 0.367188 8.703125 C 0.03125 9.25 -0.0703125 9.894531 0.0898438 10.523438 L 1.578125 16.421875 C 1.667969 16.78125 1.992188 17.019531 2.347656 17.019531 C 2.410156 17.019531 2.476562 17.011719 2.542969 16.996094 C 2.964844 16.890625 3.222656 16.457031 3.113281 16.035156 L 3.027344 15.691406 L 37.367188 7.886719 C 37.578125 7.839844 37.761719 7.710938 37.871094 7.523438 C 37.984375 7.339844 38.011719 7.121094 37.960938 6.914062 Z M 2.640625 14.152344 L 1.621094 10.140625 C 1.570312 9.929688 1.605469 9.714844 1.714844 9.53125 C 1.828125 9.347656 2.007812 9.222656 2.222656 9.171875 L 34.132812 1.601562 C 34.1875 1.585938 34.246094 1.582031 34.304688 1.582031 C 34.660156 1.582031 34.988281 1.824219 35.078125 2.191406 L 36.21875 6.523438 Z M 2.640625 14.152344 "/>
<path style=" stroke:none;fill-rule:nonzero;fill:rgb(0%,0%,0%);fill-opacity:1;" d="M 9.039062 14.324219 C 8.644531 14.132812 8.171875 14.285156 7.972656 14.679688 L 4.804688 21.015625 C 4.609375 21.40625 4.769531 21.878906 5.160156 22.078125 C 5.273438 22.132812 5.394531 22.160156 5.515625 22.160156 C 5.804688 22.160156 6.085938 22 6.222656 21.722656 L 9.390625 15.386719 C 9.585938 14.996094 9.429688 14.519531 9.039062 14.324219 Z M 9.039062 14.324219 "/>
<path style=" stroke:none;fill-rule:nonzero;fill:rgb(0%,0%,0%);fill-opacity:1;" d="M 16.957031 14.324219 C 16.5625 14.132812 16.089844 14.285156 15.890625 14.679688 L 12.722656 21.015625 C 12.53125 21.40625 12.6875 21.878906 13.078125 22.078125 C 13.195312 22.132812 13.316406 22.160156 13.433594 22.160156 C 13.722656 22.160156 14.003906 22 14.140625 21.722656 L 17.308594 15.386719 C 17.503906 14.996094 17.347656 14.519531 16.957031 14.324219 Z M 16.957031 14.324219 "/>
<path style=" stroke:none;fill-rule:nonzero;fill:rgb(0%,0%,0%);fill-opacity:1;" d="M 24.875 14.324219 C 24.484375 14.132812 24.011719 14.285156 23.8125 14.679688 L 20.644531 21.015625 C 20.449219 21.40625 20.609375 21.878906 21 22.078125 C 21.113281 22.132812 21.234375 22.160156 21.355469 22.160156 C 21.644531 22.160156 21.925781 22 22.0625 21.722656 L 25.230469 15.386719 C 25.425781 14.996094 25.265625 14.519531 24.875 14.324219 Z M 24.875 14.324219 "/>
<path style=" stroke:none;fill-rule:nonzero;fill:rgb(0%,0%,0%);fill-opacity:1;" d="M 32.792969 14.324219 C 32.402344 14.132812 31.929688 14.285156 31.730469 14.679688 L 28.5625 21.015625 C 28.367188 21.40625 28.527344 21.878906 28.917969 22.078125 C 29.035156 22.132812 29.15625 22.160156 29.273438 22.160156 C 29.5625 22.160156 29.84375 22 29.980469 21.722656 L 33.148438 15.386719 C 33.34375 14.996094 33.1875 14.519531 32.792969 14.324219 Z M 32.792969 14.324219 "/>
<path style=" stroke:none;fill-rule:nonzero;fill:rgb(0%,0%,0%);fill-opacity:1;" d="M 37.191406 20.578125 L 2.347656 20.578125 C 1.910156 20.578125 1.554688 20.933594 1.554688 21.367188 C 1.554688 21.804688 1.910156 22.160156 2.347656 22.160156 L 37.191406 22.160156 C 37.632812 22.160156 37.984375 21.804688 37.984375 21.367188 C 37.984375 20.933594 37.628906 20.578125 37.191406 20.578125 Z M 37.191406 20.578125 "/>
<path style=" stroke:none;fill-rule:nonzero;fill:rgb(0%,0%,0%);fill-opacity:1;" d="M 10.003906 12.859375 L 4.550781 7.402344 C 4.242188 7.09375 3.738281 7.09375 3.429688 7.402344 C 3.121094 7.710938 3.121094 8.214844 3.429688 8.523438 L 8.886719 13.980469 C 9.039062 14.132812 9.242188 14.210938 9.445312 14.210938 C 9.648438 14.210938 9.851562 14.132812 10.003906 13.976562 C 10.3125 13.667969 10.3125 13.167969 10.003906 12.859375 Z M 10.003906 12.859375 "/>
<path style=" stroke:none;fill-rule:nonzero;fill:rgb(0%,0%,0%);fill-opacity:1;" d="M 17.753906 11.097656 L 12.292969 5.644531 C 11.984375 5.335938 11.484375 5.335938 11.175781 5.644531 C 10.863281 5.953125 10.863281 6.453125 11.175781 6.761719 L 16.632812 12.21875 C 16.789062 12.371094 16.988281 12.449219 17.191406 12.449219 C 17.394531 12.449219 17.597656 12.371094 17.753906 12.21875 C 18.0625 11.910156 18.0625 11.40625 17.753906 11.097656 Z M 17.753906 11.097656 "/>
<path style=" stroke:none;fill-rule:nonzero;fill:rgb(0%,0%,0%);fill-opacity:1;" d="M 25.496094 9.339844 L 20.046875 3.882812 C 19.738281 3.574219 19.234375 3.574219 18.925781 3.882812 C 18.617188 4.191406 18.617188 4.691406 18.925781 5.003906 L 24.375 10.457031 C 24.53125 10.613281 24.734375 10.691406 24.9375 10.691406 C 25.140625 10.691406 25.34375 10.613281 25.496094 10.457031 C 25.804688 10.148438 25.804688 9.648438 25.496094 9.339844 Z M 25.496094 9.339844 "/>
<path style=" stroke:none;fill-rule:nonzero;fill:rgb(0%,0%,0%);fill-opacity:1;" d="M 33.234375 7.582031 L 27.78125 2.125 C 27.472656 1.816406 26.972656 1.816406 26.664062 2.125 C 26.355469 2.433594 26.355469 2.933594 26.664062 3.242188 L 32.113281 8.699219 C 32.269531 8.855469 32.472656 8.933594 32.675781 8.933594 C 32.878906 8.933594 33.082031 8.855469 33.234375 8.699219 C 33.542969 8.390625 33.542969 7.890625 33.234375 7.582031 Z M 33.234375 7.582031 "/>
</g>
</svg>
