<?xml version="1.0" encoding="UTF-8"?>
<svg xmlns="http://www.w3.org/2000/svg" xmlns:xlink="http://www.w3.org/1999/xlink" width="46pt" height="46pt" viewBox="0 0 46 46" version="1.1">
<g id="surface1">
<path style=" stroke:none;fill-rule:nonzero;fill:rgb(0%,0%,0%);fill-opacity:1;" d="M 45.023438 17.238281 L 2.839844 17.238281 C 2.3125 17.238281 1.882812 17.667969 1.882812 18.199219 L 1.882812 41.207031 C 1.882812 43.847656 4.03125 46 6.675781 46 L 41.1875 46 C 43.832031 46 45.980469 43.847656 45.980469 41.207031 L 45.980469 18.199219 C 45.980469 17.667969 45.550781 17.238281 45.023438 17.238281 Z M 44.0625 41.207031 C 44.0625 42.792969 42.773438 44.082031 41.1875 44.082031 L 6.675781 44.082031 C 5.089844 44.082031 3.800781 42.792969 3.800781 41.207031 L 3.800781 19.15625 L 44.0625 19.15625 Z M 44.0625 41.207031 "/>
<path style=" stroke:none;fill-rule:nonzero;fill:rgb(0%,0%,0%);fill-opacity:1;" d="M 45.949219 8.367188 L 44.320312 2.175781 C 43.945312 0.671875 42.40625 -0.273438 40.882812 0.0703125 L 2.253906 9.234375 C 1.496094 9.410156 0.851562 9.871094 0.445312 10.535156 C 0.0351562 11.199219 -0.0859375 11.980469 0.105469 12.738281 L 1.914062 19.878906 C 2.019531 20.3125 2.410156 20.601562 2.839844 20.601562 C 2.917969 20.601562 2.996094 20.59375 3.078125 20.574219 C 3.589844 20.445312 3.902344 19.921875 3.769531 19.410156 L 3.664062 18.992188 L 45.234375 9.546875 C 45.488281 9.488281 45.710938 9.332031 45.84375 9.109375 C 45.980469 8.886719 46.015625 8.617188 45.949219 8.367188 Z M 3.195312 17.132812 L 1.964844 12.273438 C 1.902344 12.019531 1.941406 11.757812 2.078125 11.535156 C 2.214844 11.316406 2.429688 11.164062 2.6875 11.101562 L 41.316406 1.9375 C 41.386719 1.921875 41.457031 1.914062 41.527344 1.914062 C 41.957031 1.914062 42.351562 2.210938 42.460938 2.652344 L 43.84375 7.894531 Z M 3.195312 17.132812 "/>
<path style=" stroke:none;fill-rule:nonzero;fill:rgb(0%,0%,0%);fill-opacity:1;" d="M 10.941406 17.339844 C 10.464844 17.105469 9.894531 17.292969 9.652344 17.769531 L 5.816406 25.4375 C 5.582031 25.910156 5.773438 26.488281 6.246094 26.722656 C 6.386719 26.792969 6.53125 26.828125 6.675781 26.828125 C 7.027344 26.828125 7.367188 26.632812 7.535156 26.296875 L 11.371094 18.625 C 11.605469 18.152344 11.414062 17.578125 10.941406 17.339844 Z M 10.941406 17.339844 "/>
<path style=" stroke:none;fill-rule:nonzero;fill:rgb(0%,0%,0%);fill-opacity:1;" d="M 20.523438 17.339844 C 20.050781 17.105469 19.476562 17.292969 19.238281 17.769531 L 15.402344 25.4375 C 15.167969 25.910156 15.359375 26.488281 15.832031 26.722656 C 15.972656 26.792969 16.117188 26.828125 16.261719 26.828125 C 16.613281 26.828125 16.953125 26.632812 17.121094 26.296875 L 20.953125 18.625 C 21.191406 18.152344 21 17.578125 20.523438 17.339844 Z M 20.523438 17.339844 "/>
<path style=" stroke:none;fill-rule:nonzero;fill:rgb(0%,0%,0%);fill-opacity:1;" d="M 30.113281 17.339844 C 29.640625 17.105469 29.066406 17.292969 28.824219 17.769531 L 24.988281 25.4375 C 24.753906 25.910156 24.945312 26.488281 25.417969 26.722656 C 25.558594 26.792969 25.707031 26.828125 25.847656 26.828125 C 26.199219 26.828125 26.539062 26.632812 26.707031 26.296875 L 30.542969 18.625 C 30.777344 18.152344 30.585938 17.578125 30.113281 17.339844 Z M 30.113281 17.339844 "/>
<path style=" stroke:none;fill-rule:nonzero;fill:rgb(0%,0%,0%);fill-opacity:1;" d="M 39.699219 17.339844 C 39.222656 17.105469 38.652344 17.292969 38.410156 17.769531 L 34.578125 25.4375 C 34.339844 25.910156 34.53125 26.488281 35.007812 26.722656 C 35.148438 26.792969 35.292969 26.828125 35.4375 26.828125 C 35.785156 26.828125 36.125 26.632812 36.292969 26.296875 L 40.128906 18.625 C 40.363281 18.152344 40.171875 17.578125 39.699219 17.339844 Z M 39.699219 17.339844 "/>
<path style=" stroke:none;fill-rule:nonzero;fill:rgb(0%,0%,0%);fill-opacity:1;" d="M 45.023438 24.910156 L 2.839844 24.910156 C 2.3125 24.910156 1.882812 25.339844 1.882812 25.867188 C 1.882812 26.398438 2.3125 26.828125 2.839844 26.828125 L 45.023438 26.828125 C 45.554688 26.828125 45.980469 26.398438 45.980469 25.867188 C 45.980469 25.339844 45.550781 24.910156 45.023438 24.910156 Z M 45.023438 24.910156 "/>
<path style=" stroke:none;fill-rule:nonzero;fill:rgb(0%,0%,0%);fill-opacity:1;" d="M 12.109375 15.566406 L 5.507812 8.960938 C 5.132812 8.589844 4.527344 8.589844 4.152344 8.960938 C 3.777344 9.335938 3.777344 9.945312 4.152344 10.316406 L 10.753906 16.921875 C 10.945312 17.109375 11.1875 17.203125 11.433594 17.203125 C 11.679688 17.203125 11.925781 17.109375 12.109375 16.921875 C 12.484375 16.546875 12.484375 15.9375 12.109375 15.566406 Z M 12.109375 15.566406 "/>
<path style=" stroke:none;fill-rule:nonzero;fill:rgb(0%,0%,0%);fill-opacity:1;" d="M 21.492188 13.433594 L 14.882812 6.832031 C 14.507812 6.457031 13.898438 6.457031 13.527344 6.832031 C 13.152344 7.207031 13.152344 7.8125 13.527344 8.1875 L 20.132812 14.789062 C 20.320312 14.976562 20.566406 15.070312 20.8125 15.070312 C 21.058594 15.070312 21.304688 14.976562 21.492188 14.789062 C 21.863281 14.417969 21.863281 13.808594 21.492188 13.433594 Z M 21.492188 13.433594 "/>
<path style=" stroke:none;fill-rule:nonzero;fill:rgb(0%,0%,0%);fill-opacity:1;" d="M 30.863281 11.304688 L 24.265625 4.699219 C 23.890625 4.324219 23.285156 4.324219 22.910156 4.699219 C 22.535156 5.074219 22.535156 5.679688 22.910156 6.054688 L 29.507812 12.660156 C 29.695312 12.847656 29.941406 12.941406 30.1875 12.941406 C 30.433594 12.941406 30.675781 12.847656 30.863281 12.660156 C 31.238281 12.285156 31.238281 11.679688 30.863281 11.304688 Z M 30.863281 11.304688 "/>
<path style=" stroke:none;fill-rule:nonzero;fill:rgb(0%,0%,0%);fill-opacity:1;" d="M 40.230469 9.175781 L 33.632812 2.570312 C 33.257812 2.199219 32.648438 2.199219 32.277344 2.570312 C 31.902344 2.945312 31.902344 3.554688 32.277344 3.925781 L 38.875 10.53125 C 39.0625 10.71875 39.308594 10.8125 39.554688 10.8125 C 39.800781 10.8125 40.046875 10.71875 40.230469 10.53125 C 40.605469 10.160156 40.605469 9.550781 40.230469 9.175781 Z M 40.230469 9.175781 "/>
</g>
</svg>
